<svg width="30" height="31" viewBox="0 0 30 31" xmlns="http://www.w3.org/2000/svg">
<path d="M28.2915 10.4503L17.7212 1.14046C16.2111 -0.369588 13.7526 -0.369588 12.305 1.07806L1.60988 10.5127C0.574066 11.5485 0 12.9338 0 14.4064V26.8736C0 28.9452 1.68476 30.63 3.75639 30.63H26.2199C28.279 30.63 29.9638 28.9452 29.9638 26.8736V14.4064C29.9638 12.9338 29.3897 11.5485 28.2915 10.4503ZM27.4678 26.8736C27.4678 27.5725 26.9062 28.1341 26.2199 28.1341H18.3077V20.0971C18.3077 19.3733 17.7337 18.7992 17.0098 18.7992H12.9539C12.2426 18.7992 11.656 19.3733 11.656 20.0971V28.1341H3.75639C3.05753 28.1341 2.49594 27.5725 2.49594 26.8736V14.4064C2.49594 13.6202 2.82041 12.8339 3.3196 12.3223L14.0147 2.90009C14.2768 2.63802 14.6137 2.50074 14.9632 2.50074C15.3376 2.50074 15.7119 2.6505 16.0115 2.95001L26.5818 12.2724C27.1558 12.8464 27.4678 13.6077 27.4678 14.4064V26.8736Z"/>
</svg>
