<svg width="413" height="531" viewBox="20 -70 400 650" fill="none" xmlns="http://www.w3.org/2000/svg">
<path d="M374.018 517.773L360.833 517.771L354.562 462.821L374.023 462.824L374.018 517.773Z" fill="#FFB8B8"/>
<path d="M351.414 513.701H376.843V531H335.402C335.402 528.728 335.816 526.479 336.621 524.38C337.426 522.281 338.605 520.374 340.092 518.768C341.579 517.162 343.344 515.887 345.286 515.018C347.229 514.149 349.311 513.701 351.414 513.701V513.701Z" fill="#2F2E41"/>
<path d="M239.309 517.773L226.123 517.771L219.853 462.821L239.314 462.824L239.309 517.773Z" fill="#FFB8B8"/>
<path d="M216.705 513.701H242.134V531H200.693C200.693 528.728 201.108 526.479 201.912 524.38C202.717 522.281 203.896 520.374 205.383 518.768C206.87 517.162 208.635 515.887 210.577 515.018C212.52 514.149 214.602 513.701 216.705 513.701V513.701Z" fill="#2F2E41"/>
<path d="M283.351 110.172V103.941C283.351 93.2821 287.27 83.0601 294.246 75.5233C301.221 67.9866 310.682 63.7524 320.548 63.7524H320.548C330.413 63.7524 339.874 67.9866 346.85 75.5233C353.825 83.0601 357.744 93.2821 357.744 103.941V110.172C357.744 117.856 354.919 125.225 349.89 130.659C344.861 136.092 338.04 139.144 330.928 139.144H310.167C306.646 139.144 303.159 138.395 299.905 136.939C296.652 135.483 293.695 133.349 291.205 130.659C288.715 127.968 286.74 124.774 285.392 121.259C284.045 117.744 283.351 113.976 283.351 110.172V110.172Z" fill="#2F2E41"/>
<path d="M320.548 141.288C336.193 141.288 348.876 127.585 348.876 110.682C348.876 93.778 336.193 80.075 320.548 80.075C304.902 80.075 292.219 93.778 292.219 110.682C292.219 127.585 304.902 141.288 320.548 141.288Z" fill="#FFB8B8"/>
<path d="M166.46 215.873C167.609 214.7 168.983 213.814 170.484 213.277C171.985 212.739 173.576 212.564 175.147 212.764C176.717 212.963 178.228 213.532 179.573 214.43C180.917 215.329 182.064 216.535 182.93 217.963L207.214 213L213.605 228.209L179.22 234.697C176.902 236.111 174.185 236.558 171.582 235.952C168.98 235.345 166.674 233.729 165.101 231.409C163.528 229.088 162.798 226.225 163.048 223.362C163.299 220.499 164.512 217.834 166.46 215.873V215.873Z" fill="#FFB8B8"/>
<path d="M298.462 160.563L298.78 161.083L258.958 189.426L191.764 212.608C190.873 212.918 190.109 213.551 189.602 214.4C189.095 215.25 188.876 216.263 188.982 217.267L190.448 230.908C190.513 231.512 190.694 232.094 190.979 232.618C191.265 233.142 191.649 233.595 192.106 233.949C192.563 234.303 193.084 234.55 193.634 234.674C194.185 234.798 194.754 234.797 195.304 234.669L258.543 220.024C261.604 219.319 264.498 217.942 267.046 215.979L311.783 181.59C313.405 180.336 314.699 178.651 315.539 176.697C316.38 174.743 316.738 172.587 316.579 170.44C316.415 168.289 315.736 166.222 314.608 164.441C313.48 162.66 311.942 161.227 310.146 160.283C308.35 159.339 306.358 158.916 304.365 159.057C302.372 159.197 300.447 159.895 298.779 161.083L298.462 160.563Z" fill="#D36060"/>
<path d="M361.069 502.18C360.057 502.18 359.066 501.862 358.219 501.264C357.371 500.666 356.703 499.815 356.296 498.813L295.848 337.436C295.706 337.086 295.469 336.791 295.169 336.591C294.868 336.391 294.517 336.295 294.164 336.316C293.812 336.338 293.473 336.476 293.195 336.711C292.917 336.946 292.712 337.268 292.608 337.633L243.291 494.74C243.083 495.471 242.739 496.148 242.279 496.73C241.82 497.312 241.255 497.787 240.62 498.124C239.984 498.462 239.292 498.655 238.585 498.693C237.878 498.73 237.171 498.611 236.508 498.343L219.97 491.642C219.073 491.282 218.285 490.659 217.695 489.844C217.105 489.029 216.736 488.054 216.629 487.026C209.189 417.002 274.067 240.251 274.724 238.474L274.905 237.982L334.047 252.117L334.17 252.262C357.766 280.073 377.161 455.486 380.809 490.368C380.945 491.628 380.68 492.9 380.057 493.975C379.434 495.051 378.491 495.865 377.383 496.283L362.785 501.861C362.234 502.072 361.653 502.18 361.069 502.18Z" fill="#2F2E41"/>
<path d="M310.111 257.806C295.782 257.806 279.807 254.719 274.889 241.979L274.776 241.686L274.929 241.415C278.811 234.534 283.941 222.797 281.183 220.594C275.752 216.255 273.116 209.116 273.35 199.377C273.858 178.235 287.191 159.465 306.528 152.669H306.528C311.926 150.802 317.418 149.274 322.979 148.092C327.033 147.209 331.217 147.306 335.232 148.377C339.247 149.448 342.992 151.467 346.199 154.288C349.447 157.127 352.072 160.709 353.886 164.775C355.7 168.84 356.657 173.29 356.691 177.803C356.893 200.397 353.674 231.865 337.184 253.47C336.412 254.472 335.336 255.148 334.148 255.378C326.214 256.928 318.173 257.741 310.111 257.806Z" fill="#D36060"/>
<path d="M304.781 256.96C305.561 253.937 307.413 251.37 309.935 249.815C312.457 248.26 315.446 247.843 318.251 248.655C318.823 248.828 319.382 249.052 319.92 249.323L338.359 231.193L351.182 240.527L324.814 265.738C323.623 268.057 321.749 269.88 319.489 270.916C317.229 271.951 314.713 272.141 312.342 271.454C310.961 271.045 309.669 270.345 308.539 269.394C307.41 268.442 306.467 267.258 305.764 265.911C305.06 264.563 304.612 263.078 304.443 261.541C304.274 260.005 304.389 258.448 304.781 256.96V256.96Z" fill="#FFB8B8"/>
<path d="M335.438 257.19C334.242 257.191 333.082 256.744 332.157 255.925L324.885 249.506C324.279 248.97 323.793 248.294 323.463 247.527C323.133 246.76 322.968 245.922 322.98 245.077C322.992 244.231 323.181 243.399 323.533 242.644C323.884 241.888 324.39 241.228 325.011 240.714L355.508 215.442C355.87 215.141 356.107 214.698 356.168 214.209C356.229 213.721 356.11 213.226 355.835 212.832L337.012 185.945C334.825 182.831 333.728 178.982 333.915 175.079C334.102 171.176 335.562 167.47 338.035 164.618V164.618C340.64 161.578 344.207 159.708 348.029 159.378C351.851 159.047 355.648 160.281 358.667 162.835L358.786 162.971L378.442 193.38C380.567 195.18 382.279 197.487 383.442 200.121C384.606 202.754 385.191 205.642 385.151 208.56C385.11 211.478 384.446 214.346 383.211 216.941C381.975 219.536 380.2 221.787 378.026 223.518L338.528 256.091C337.634 256.805 336.551 257.19 335.438 257.19Z" fill="#D36060"/>
<path d="M295.455 102.072V86.886L320.547 75.0476L344.473 86.886V102.072C344.473 102.733 344.23 103.367 343.798 103.834C343.365 104.301 342.778 104.564 342.167 104.564H297.761C297.15 104.564 296.563 104.301 296.13 103.834C295.698 103.367 295.455 102.733 295.455 102.072Z" fill="#2F2E41"/>
<path d="M319.395 65.7671C315.706 53.0083 323.454 38.3863 334.909 33.336C346.364 28.2858 360.068 31.8161 369.734 40.1598C379.4 48.5035 385.397 61.0009 388.574 73.9194C391.752 86.838 392.355 100.309 392.941 113.661C407.015 116.454 416.589 134.489 411.714 149.024C406.838 163.559 388.793 170.781 376.33 163.183C363.868 155.586 360.258 135.164 369.253 123.14C373.509 117.451 375.886 110.39 376.008 103.075C376.131 95.7612 373.991 88.612 369.928 82.76C365.865 76.9081 360.111 72.688 353.578 70.7681C347.044 68.8482 340.105 69.3382 333.858 72.1606C326.922 75.2945 318.219 67.1518 319.395 65.7671Z" fill="#2F2E41"/>
<path d="M5.13281 218.819C5.13281 237.461 20.2454 252.574 38.8879 252.574H65.1107C83.7532 252.574 98.8658 237.461 98.8658 218.819V207.381H5.13281V218.819Z" fill="#FF757C"/>
<path d="M98.8618 41.6758H5.13086V133.179H98.8618V41.6758Z" fill="#FF757C"/>
<path d="M99 132.708H5V206.708H99V132.708Z" fill="white"/>
<path d="M56.006 1.49973C54.9083 0.401453 53.437 -0.0908079 52.001 0.0138857C50.564 -0.0913113 49.0917 0.40095 47.993 1.49973L12.9684 36.5409H5.13351C2.29823 36.5409 0 38.8391 0 41.6744V218.818C0 240.262 17.4451 257.707 38.8886 257.707H65.1114C86.5549 257.707 104 240.262 104 218.818V41.6744C104 38.8391 101.701 36.5409 98.8665 36.5409H91.0311L56.006 1.49973ZM93.7325 176.722L10.267 184.213V168.005L63.4906 160.573C66.2987 160.181 68.2572 157.587 67.8651 154.779C67.473 151.971 64.8808 150.013 62.0707 150.404L10.267 157.638V138.309H93.7325V176.722ZM10.2665 194.521L93.732 187.031V202.248H10.2665V194.521ZM76.5265 36.5409H57.1335V17.1479L76.5265 36.5409ZM46.866 17.1479V36.5414H27.473L46.866 17.1479ZM10.2665 46.8084H93.732V128.043H10.2665V46.8084ZM93.7325 218.819C93.7325 234.601 80.8929 247.441 65.1114 247.441H38.8881C23.1061 247.441 10.267 234.601 10.267 218.819V212.515H93.7325V218.819Z" fill="#603813"/>
<path d="M78.6879 158.402C78.9245 158.402 79.1636 158.385 79.4047 158.351L81.4583 158.064C84.2664 157.672 86.2248 155.078 85.8327 152.27C85.4401 149.461 82.8414 147.505 80.0383 147.896L77.9847 148.182C75.1766 148.575 73.2182 151.169 73.6103 153.977C73.9691 156.544 76.1682 158.402 78.6879 158.402Z" fill="#603813"/>
</svg>
