<svg width="142" height="198" viewBox="-50 0 250 200" fill="none" xmlns="http://www.w3.org/2000/svg">
<path d="M75.574 68.6608C91.5791 68.6608 104.554 56.4993 104.554 41.4974C104.554 26.4954 91.5791 14.334 75.574 14.334C59.5689 14.334 46.5942 26.4954 46.5942 41.4974C46.5942 56.4993 59.5689 68.6608 75.574 68.6608Z" fill="#2F2E41"/>
<path d="M76.1619 71.0607C88.0741 71.0607 97.7308 62.0092 97.7308 50.8437C97.7308 39.6782 88.0741 30.6267 76.1619 30.6267C64.2498 30.6267 54.593 39.6782 54.593 50.8437C54.593 62.0092 64.2498 71.0607 76.1619 71.0607Z" fill="#A0616A"/>
<path d="M108.945 80.1847C108.945 80.1847 69.4268 73.5996 43.9597 81.8309L51.4242 137.392L49.6679 146.447L102.358 144.801L98.8457 135.746L108.945 80.1847Z" fill="#A0616A"/>
<path d="M81.4828 140.141C72.3852 140.039 63.2992 139.5 54.2607 138.524C52.4042 138.333 50.6919 137.495 49.4624 136.178C48.2328 134.86 47.5755 133.158 47.6203 131.408L48.2614 105.424L48.336 105.322C55.9713 94.9564 52.252 87.3852 49.3912 83.3091C48.7872 82.4482 48.466 81.4402 48.4672 80.4098V80.4098C48.0285 79.8374 47.9294 80.7433 48.2021 80.0976C48.3371 79.7774 48.5553 79.4939 48.8369 79.2729C49.1185 79.0518 49.4545 78.9002 49.8145 78.8319L54.1739 78.0152C54.697 77.917 55.2404 78.0009 55.7023 78.2511C56.1643 78.5013 56.5133 78.9006 56.6838 79.3745C58.1486 83.4708 63.858 96.6527 76.94 96.6498C87.8687 96.6474 91.9468 82.1533 92.1912 78.8037C92.2312 78.2849 92.4791 77.7995 92.8851 77.4449C93.2912 77.0904 93.8253 76.8929 94.3802 76.8922H99.8254C100.17 76.8846 100.512 76.9498 100.826 77.0829C101.14 77.216 101.418 77.4137 101.64 77.6612C101.911 77.9763 102.076 78.3598 102.115 78.763C102.153 79.1663 102.062 79.5711 101.854 79.9259C95.6398 90.6347 104.722 107.58 104.814 107.749L104.872 107.856L102.31 132.791C102.155 134.254 101.515 135.635 100.479 136.739C99.4432 137.842 98.0644 138.614 96.5364 138.945C92.5739 139.819 87.2197 140.141 81.4828 140.141Z" fill="#CCCCCC"/>
<path d="M31.3362 198C25.4351 198.001 20.032 197.39 15.7402 195.951C10.6384 194.239 7.4344 191.472 6.21747 187.723C5.64262 186.129 5.47085 184.431 5.71567 182.764C5.96049 181.096 6.6152 179.505 7.62821 178.115C15.1759 167.521 41.3683 164.536 44.8829 164.181L46.7448 149.638C46.9654 147.96 47.8246 146.413 49.1647 145.281C50.5048 144.149 52.2357 143.508 54.0395 143.476L98.1519 142.831C99.9233 142.791 101.651 143.35 103.02 144.404C104.389 145.458 105.309 146.938 105.613 148.574L108.119 161.497L79.194 174.643L83.5675 186.121L83.2823 186.3C74.8158 191.591 50.4704 197.999 31.3362 198Z" fill="#2F2E41"/>
<path d="M104.115 159.617C104.115 159.617 144.511 154.678 141.877 174.434C139.242 194.189 108.506 208.182 61.9626 174.434L67.2317 164.556C67.2317 164.556 93.577 171.141 104.115 166.202V159.617Z" fill="#2F2E41"/>
<path d="M68.1098 167.025C68.1098 167.025 68.1098 157.147 59.3281 157.971C50.5463 158.794 34.7391 159.617 34.7391 159.617C34.7391 159.617 29.4701 162.909 36.4955 164.556C43.5209 166.202 64.5971 174.433 64.5971 174.433L68.1098 167.025Z" fill="#A0616A"/>
<path d="M83.0386 165.379C83.0386 165.379 83.0386 155.501 91.8203 156.324C100.602 157.147 116.409 157.971 116.409 157.971C116.409 157.971 121.678 161.263 114.653 162.909C107.628 164.556 86.5513 172.787 86.5513 172.787L83.0386 165.379Z" fill="#A0616A"/>
<path d="M135.66 163.508L122.557 120.93C122.557 120.93 119.922 106.113 117.288 92.1201C114.653 78.1268 104.993 79.7731 104.993 79.7731L103.237 80.5962V102.821L104.993 123.399L122.526 168.593C122.01 170.16 121.98 171.833 122.44 173.415C122.9 174.998 123.831 176.425 125.124 177.53C126.417 178.636 128.019 179.373 129.743 179.657C131.466 179.94 133.24 179.759 134.858 179.132C136.475 178.506 137.869 177.461 138.877 176.12C139.885 174.779 140.464 173.197 140.549 171.559C140.633 169.92 140.218 168.293 139.352 166.868C138.487 165.442 137.206 164.277 135.66 163.508Z" fill="#A0616A"/>
<path d="M47.0334 81.4196C47.0334 81.4196 37.3735 79.7733 34.739 93.7666C32.1044 107.76 29.4699 122.576 29.4699 122.576L16.3663 165.154C14.8223 165.924 13.5435 167.089 12.6794 168.513C11.8152 169.938 11.4013 171.564 11.4859 173.201C11.5705 174.838 12.1503 176.419 13.1574 177.759C14.1644 179.099 15.5574 180.142 17.1735 180.768C18.7897 181.394 20.5623 181.576 22.2846 181.292C24.0069 181.009 25.6077 180.273 26.9001 179.169C28.1926 178.065 29.1233 176.639 29.5838 175.058C30.0442 173.477 30.0152 171.805 29.5004 170.239L47.0334 125.046L48.7898 104.467V84.0833C48.7898 83.5302 48.6255 82.9881 48.3153 82.5176C48.005 82.0471 47.5612 81.6669 47.0334 81.4196V81.4196Z" fill="#A0616A"/>
<path d="M54.8115 38.4236C63.2349 43.2432 72.7311 46.1761 82.5612 46.994L79.6361 43.7088C81.7659 44.4469 84.007 44.864 86.2761 44.9447C87.4122 44.9755 88.5401 44.7564 89.5695 44.3048C90.5988 43.8532 91.5009 43.1818 92.2034 42.3443C92.7771 41.4747 93.1179 40.4878 93.1967 39.4681C93.2756 38.4483 93.0901 37.4257 92.6561 36.4877C91.7647 34.6166 90.3772 32.9906 88.6258 31.7641C85.5214 29.4623 81.8577 27.9161 77.9611 27.2634C74.0645 26.6107 70.0561 26.8716 66.2933 28.0231C63.7121 28.7461 61.4005 30.136 59.6232 32.0335C58.7495 32.9894 58.1426 34.1336 57.8572 35.3635C57.5717 36.5935 57.6165 37.8706 57.9875 39.0803" fill="#2F2E41"/>
<path d="M78.3018 17.3493C71.499 10.8831 63.2667 5.89332 54.1845 2.73113C48.3545 0.706703 42.009 -0.544126 35.914 0.605577C29.819 1.75528 24.055 5.70739 22.3546 11.3127C20.9641 15.8962 22.3999 20.8312 24.5577 25.1459C26.7155 29.4605 29.5963 33.4616 31.3412 37.9373C33.1217 42.504 33.6572 47.4153 32.899 52.2252C32.1408 57.0351 30.1131 61.5914 26.9997 65.4804C23.8864 69.3694 19.7861 72.4681 15.0711 74.495C10.3561 76.522 5.17562 77.4131 0 77.0874C5.98861 77.84 11.5087 80.4779 17.3623 81.882C23.2158 83.2861 30.1246 83.1908 34.4746 79.2601C39.077 75.1013 39.1692 68.3394 38.9467 62.3509C38.6159 53.4487 38.2851 44.5466 37.9543 35.6444C37.7856 31.1045 37.6415 26.419 39.3883 22.1816C41.135 17.9442 45.2862 14.2337 50.1325 14.2723C53.8055 14.3015 57.0564 16.3871 60.002 18.4439C62.9476 20.5007 66.0654 22.6951 69.724 23.0011C73.3826 23.307 77.5599 20.7692 77.2861 17.3359" fill="#2F2E41"/>
</svg>
