<svg width="227" height="87" viewBox="0 0 227 87" fill="none" xmlns="http://www.w3.org/2000/svg">
<path fill-rule="evenodd" clip-rule="evenodd" d="M18.4311 2.87745C17.9253 2.13132 16.8717 1.91181 16.0777 2.38714C15.598 2.67436 14.8001 3.4385 14.2243 4.3014C13.9422 4.72431 13.7565 5.10799 13.6775 5.40807C13.6455 5.53006 13.6365 5.61443 13.6361 5.66967C13.6361 5.67284 13.6361 5.67599 13.6361 5.67916C13.6365 5.71112 13.6397 5.73221 13.6424 5.74441C13.6712 5.76461 13.7617 5.81607 13.9816 5.85663C14.3044 5.91618 14.7528 5.92025 15.28 5.85862C16.3556 5.73288 17.4297 5.37631 17.9094 5.0891C18.7034 4.61376 18.9369 3.62358 18.4311 2.87745ZM6.02959 6.98161H1.13636C0.508773 6.98161 0 7.45972 0 8.04951V12.3211C0 12.9109 0.508773 13.389 1.13636 13.389V20.8642C1.13636 22.0438 2.1539 23 3.40909 23H12.5H21.5909C22.8461 23 23.8636 22.0438 23.8636 20.8642V13.389C24.4912 13.389 25 12.9109 25 12.3211V8.04951C25 7.45972 24.4912 6.98161 23.8636 6.98161H18.9705C19.0258 6.9515 19.0792 6.92108 19.1306 6.89037C20.9832 5.78126 21.5282 3.47082 20.348 1.72987C19.1677 -0.0110865 16.7092 -0.523298 14.8566 0.585814C14.091 1.04414 13.1826 1.93566 12.5 2.87772C11.8174 1.93566 10.909 1.04414 10.1434 0.585814C8.29085 -0.523298 5.83227 -0.0110865 4.65205 1.72987C3.47182 3.47082 4.01688 5.78126 5.86945 6.89037C5.92074 6.92108 5.97417 6.9515 6.02959 6.98161ZM11.3639 5.66967C11.3639 5.67283 11.3639 5.676 11.3639 5.67916C11.3635 5.71113 11.3603 5.73221 11.3576 5.74441C11.3288 5.76461 11.2383 5.81607 11.0184 5.85663C10.6956 5.91618 10.2472 5.92025 9.72002 5.85862C8.64447 5.73288 7.57035 5.37631 7.0906 5.0891C6.29663 4.61376 6.06304 3.62358 6.56885 2.87745C7.07467 2.13132 8.12834 1.91181 8.9223 2.38714C9.40205 2.67436 10.1999 3.4385 10.7757 4.3014C11.0578 4.72431 11.2435 5.10799 11.3225 5.40807C11.3546 5.53006 11.3635 5.61443 11.3639 5.66967ZM3.40908 13.389V20.8643H11.3636V13.389H3.40908ZM11.3636 11.2531H2.27273V9.11736H11.3636V11.2531ZM13.6364 13.389V20.8643H21.5909V13.389H13.6364ZM13.6364 11.2531V9.11736H22.7273V11.2531H13.6364Z" fill="#231F20"/>
</svg>
