<svg width="470" height="517" viewBox="20 -100 400 600" fill="none" xmlns="http://www.w3.org/2000/svg">
<path d="M98.8566 515.232H47.8566C46.1333 515.23 44.4811 514.544 43.2625 513.326C42.044 512.107 41.3585 510.455 41.3566 508.732V402.732C41.3585 401.008 42.044 399.356 43.2625 398.138C44.4811 396.919 46.1333 396.234 47.8566 396.232H98.8566C100.58 396.234 102.232 396.919 103.451 398.138C104.669 399.356 105.355 401.008 105.357 402.732V508.732C105.355 510.455 104.669 512.107 103.451 513.326C102.232 514.544 100.58 515.23 98.8566 515.232Z" fill="#F2E3B5"/>
<path d="M219.857 516.232H168.857C166.868 516.229 164.962 515.439 163.556 514.033C162.15 512.627 161.359 510.72 161.357 508.732V302.732C161.359 300.743 162.15 298.837 163.556 297.431C164.962 296.025 166.868 295.234 168.857 295.232H219.857C221.845 295.234 223.752 296.025 225.158 297.431C226.564 298.837 227.354 300.743 227.357 302.732V508.732C227.354 510.72 226.564 512.627 225.158 514.033C223.752 515.439 221.845 516.229 219.857 516.232ZM168.857 297.232C167.399 297.233 166.001 297.813 164.969 298.844C163.938 299.876 163.358 301.274 163.357 302.732V508.732C163.358 510.19 163.938 511.588 164.969 512.619C166.001 513.65 167.399 514.23 168.857 514.232H219.857C221.315 514.23 222.713 513.65 223.744 512.619C224.775 511.588 225.355 510.19 225.357 508.732V302.732C225.355 301.274 224.775 299.876 223.744 298.844C222.713 297.813 221.315 297.233 219.857 297.232H168.857Z" fill="#F0C987"/>
<path d="M340.856 516.232H289.856C287.868 516.229 285.962 515.439 284.556 514.033C283.15 512.627 282.359 510.72 282.356 508.732V171.732C282.359 169.743 283.15 167.837 284.556 166.431C285.962 165.025 287.868 164.234 289.856 164.232H340.856C342.845 164.234 344.751 165.025 346.157 166.431C347.563 167.837 348.354 169.743 348.356 171.732V508.732C348.354 510.72 347.563 512.627 346.157 514.033C344.751 515.439 342.845 516.229 340.856 516.232ZM289.856 166.232C288.398 166.233 287 166.813 285.969 167.844C284.938 168.876 284.358 170.274 284.356 171.732V508.732C284.358 510.19 284.938 511.588 285.969 512.619C287 513.65 288.398 514.23 289.856 514.232H340.856C342.315 514.23 343.713 513.65 344.744 512.619C345.775 511.588 346.355 510.19 346.356 508.732V171.732C346.355 170.274 345.775 168.876 344.744 167.844C343.713 166.813 342.315 166.233 340.856 166.232H289.856Z" fill="#F0C987"/>
<path d="M462.986 515.732H411.986C410.263 515.73 408.61 515.044 407.392 513.826C406.173 512.607 405.488 510.955 405.486 509.232V34.2317C405.488 32.5084 406.173 30.8563 407.392 29.6377C408.61 28.4191 410.263 27.7337 411.986 27.7317H462.986C464.709 27.7337 466.361 28.4191 467.58 29.6377C468.798 30.8563 469.484 32.5084 469.486 34.2317V509.232C469.484 510.955 468.798 512.607 467.58 513.826C466.361 515.044 464.709 515.73 462.986 515.732Z" fill="#E7C46D"/>
<path d="M145.798 222.358C145.983 220.9 145.846 219.419 145.397 218.019C144.948 216.619 144.197 215.335 143.198 214.257C142.198 213.179 140.975 212.333 139.613 211.779C138.251 211.224 136.785 210.976 135.317 211.05L117.54 178.44L113.54 192.44L125.719 222.326C126.007 224.784 127.186 227.052 129.034 228.699C130.882 230.345 133.269 231.257 135.744 231.261C138.219 231.265 140.61 230.361 142.463 228.72C144.316 227.079 145.503 224.816 145.798 222.358V222.358Z" fill="#A0616A"/>
<path d="M8.83484 351.113L18.7358 358.342L51.3308 323.589L36.7168 312.92L8.83484 351.113Z" fill="#A0616A"/>
<path d="M31.12 381.478L1.96485e-05 358.758L8.77793 346.735L27.8743 360.676C31.0631 363.004 33.1966 366.504 33.8053 370.405C34.414 374.306 33.448 378.289 31.12 381.478L31.12 381.478Z" fill="#2F2E41"/>
<path d="M61.2199 389.377L73.4799 389.376L79.3119 342.088L61.2179 342.089L61.2199 389.377Z" fill="#A0616A"/>
<path d="M97.1244 400.759L58.5937 400.761L58.593 385.874L82.2368 385.873C86.1851 385.873 89.9717 387.441 92.7636 390.233C95.5556 393.025 97.1242 396.811 97.1244 400.759Z" fill="#2F2E41"/>
<path d="M98.0399 204.94C98.0399 204.94 104.04 262.94 89.0399 302.94L78.0399 378.941H59.0399L61.0399 288.94L54.0399 208.94C54.0399 208.94 68.0399 172.94 98.0399 204.94Z" fill="#2F2E41"/>
<path d="M33.0399 208.94L53.0399 277.94L14.0399 339.94L33.5399 356.44L78.0399 286.94L65.0399 201.94L33.0399 208.94Z" fill="#2F2E41"/>
<path d="M84.0438 54.2141C97.6085 54.2141 108.605 43.2178 108.605 29.6531C108.605 16.0884 97.6085 5.09204 84.0438 5.09204C70.4791 5.09204 59.4828 16.0884 59.4828 29.6531C59.4828 43.2178 70.4791 54.2141 84.0438 54.2141Z" fill="#A0616A"/>
<path d="M63.5398 63.4404C63.5398 63.4404 78.5398 53.4404 95.5398 75.4404L100.04 213.94C100.04 213.94 87.0398 195.94 60.0398 212.94C33.0398 229.94 27.0398 210.94 27.0398 210.94C27.0398 210.94 8.03981 67.9404 63.5398 63.4404Z" fill="#FBF5EB"/>
<path d="M94.3298 75.0912C98.6439 75.3244 102.719 77.1447 105.772 80.2018C108.825 83.259 110.64 87.337 110.867 91.6515L114.04 151.94L135.04 208.94L123.04 218.94L84.0397 150.94L76.055 95.0473C75.689 92.4854 75.8956 89.8743 76.6598 87.4019C77.424 84.9295 78.7268 82.6573 80.4745 80.7488C82.2222 78.8403 84.3713 77.343 86.7671 76.3648C89.1629 75.3865 91.7458 74.9515 94.3298 75.0912Z" fill="#FBF5EB"/>
<path d="M65.9966 48.0764C70.0119 52.3535 77.4688 50.0575 77.992 44.2143C78.033 43.7607 78.03 43.3041 77.9831 42.851C77.713 40.2628 76.2177 37.913 76.5758 35.1801C76.6569 34.5 76.9103 33.8518 77.312 33.297C80.5117 29.0124 88.0226 35.2134 91.0424 31.3347C92.894 28.9563 90.7174 25.2117 92.1384 22.5535C94.0137 19.0451 99.5685 20.7758 103.052 18.8544C106.928 16.7167 106.696 10.7702 104.145 7.15322C101.033 2.74223 95.5779 0.388471 90.1906 0.0492209C84.8034 -0.290029 79.4532 1.16631 74.4236 3.12637C68.7091 5.35337 63.0423 8.43118 59.5256 13.456C55.249 19.5667 54.8375 27.782 56.9763 34.9273C58.2774 39.2739 62.7177 44.5837 65.9966 48.0764Z" fill="#2F2E41"/>
<path d="M341.316 516H288.722C286.945 515.999 285.241 515.504 283.984 514.625C282.728 513.746 282.021 512.555 282.019 511.311V168.689C282.021 167.445 282.728 166.254 283.984 165.375C285.241 164.496 286.945 164.001 288.722 164H341.316C343.093 164.001 344.797 164.496 346.053 165.375C347.31 166.254 348.017 167.445 348.019 168.689V511.311C348.017 512.555 347.31 513.746 346.053 514.625C344.797 515.504 343.093 515.999 341.316 516Z" fill="#F0C987"/>
<path d="M220.316 516H167.722C165.945 515.999 164.241 515.689 162.984 515.137C161.728 514.585 161.021 513.837 161.019 513.056V297.944C161.021 297.163 161.728 296.415 162.984 295.863C164.241 295.311 165.945 295.001 167.722 295H220.316C222.093 295.001 223.797 295.311 225.053 295.863C226.31 296.415 227.017 297.163 227.019 297.944V513.056C227.017 513.837 226.31 514.585 225.053 515.137C223.797 515.689 222.093 515.999 220.316 516Z" fill="#FFEAA3"/>
</svg>
