<svg width="818" height="755" viewBox="0 0 818 755" fill="none" xmlns="http://www.w3.org/2000/svg">
<path d="M394.75 159.63C394.75 159.63 400.694 186.971 380.485 197.67C380.485 197.67 385.24 258.297 416.148 259.486C447.056 260.675 447.056 227.39 447.056 227.39L442.301 209.558C442.301 209.558 419.714 196.482 433.979 171.518L394.75 159.63Z" fill="#A0616A"/>
<path d="M420.309 174.49C451.166 174.49 476.18 149.475 476.18 118.618C476.18 87.7603 451.166 62.7456 420.309 62.7456C389.451 62.7456 364.437 87.7603 364.437 118.618C364.437 149.475 389.451 174.49 420.309 174.49Z" fill="#2F2E41"/>
<path d="M361.465 286.828V353.399L460.132 349.833L452.999 284.451L361.465 286.828Z" fill="#A0616A"/>
<path d="M420.903 178.65C440.599 178.65 456.566 162.683 456.566 142.987C456.566 123.291 440.599 107.324 420.903 107.324C401.207 107.324 385.24 123.291 385.24 142.987C385.24 162.683 401.207 178.65 420.903 178.65Z" fill="#A0616A"/>
<path d="M376.918 197.67C376.918 197.67 356.709 194.104 349.577 197.67C342.444 201.237 334.123 200.048 325.802 234.522L310.348 305.848C310.348 305.848 307.97 327.246 325.802 324.868C343.633 322.491 342.444 291.583 342.444 291.583L354.332 264.241L375.73 240.466L376.918 197.67Z" fill="#A0616A"/>
<path d="M444.678 211.936C444.678 211.936 473.209 215.502 475.586 230.956C477.964 246.41 464.887 309.414 464.887 309.414L444.678 289.205L455.377 249.976L444.678 211.936Z" fill="#A0616A"/>
<path d="M371.569 197.076L372.164 219.068L355.521 254.731L359.087 298.716L454.476 299.003L454.189 278.507C454.189 278.507 467.265 261.864 460.132 247.599C453 233.333 447.65 211.341 447.65 211.341L438.14 205.397C438.14 205.397 454.189 242.844 420.903 236.9C387.618 230.956 385.835 193.51 385.835 193.51L371.569 197.076Z" fill="#D0CDE1"/>
<path d="M343.633 436.612L326.991 530.525L307.97 667.233L299.649 682.687L306.782 698.141L326.991 688.631L335.312 651.779C335.312 651.779 363.842 617.305 359.087 573.32L410.204 450.878L343.633 436.612Z" fill="#A0616A"/>
<path d="M425.658 446.122L437.546 562.622C437.546 562.622 435.168 594.718 442.301 623.248C449.433 651.779 454.188 701.707 454.188 701.707H477.964L473.209 555.489L488.663 436.612L425.658 446.122Z" fill="#A0616A"/>
<path d="M409.015 339.134C409.015 339.134 359.087 335.568 359.087 341.511V353.399C359.087 353.399 349.577 368.853 350.766 383.118C351.955 397.383 305.593 429.48 335.312 443.745C365.031 458.01 404.26 462.765 410.204 458.01C416.148 453.255 419.714 434.235 419.714 434.235C419.714 434.235 419.714 455.633 430.413 456.822C441.112 458.01 505.305 444.934 505.305 434.235C505.305 423.536 457.733 327.84 457.733 327.84C457.733 327.84 423.281 340.323 409.015 339.134Z" fill="#2F2E41"/>
<path d="M305.592 683.876C305.592 683.876 300.837 675.555 296.082 681.498C291.327 687.442 273.496 701.707 273.496 701.707C273.496 701.707 229.511 713.595 259.231 731.427C259.231 731.427 285.383 731.427 296.082 723.105C306.781 714.784 317.48 718.35 317.48 718.35C317.48 718.35 334.123 717.161 335.312 710.029C336.5 702.896 329.084 679.358 329.084 679.358C329.084 679.358 321.046 689.82 305.592 683.876Z" fill="#2F2E41"/>
<path d="M463.698 691.008C463.698 691.008 449.433 687.442 449.433 691.008C449.433 694.575 429.224 715.972 445.867 725.483C462.51 734.993 464.887 732.615 466.076 742.125C467.265 751.635 498.173 758.768 502.928 752.824C507.683 746.88 511.249 736.181 505.305 731.426C499.361 726.671 480.341 696.952 480.341 691.008C480.341 685.065 463.698 691.008 463.698 691.008Z" fill="#2F2E41"/>
<path d="M434.884 229.562C437.188 229.562 439.057 228.627 439.057 227.475C439.057 226.322 437.188 225.388 434.884 225.388C432.579 225.388 430.71 226.322 430.71 227.475C430.71 228.627 432.579 229.562 434.884 229.562Z" fill="#3F3D56"/>
<path d="M435.358 236.296C440.072 236.296 443.894 234.342 443.894 231.933C443.894 229.523 440.072 227.57 435.358 227.57C430.643 227.57 426.822 229.523 426.822 231.933C426.822 234.342 430.643 236.296 435.358 236.296Z" fill="#74C7E5"/>
<path d="M445.412 234.589H424.925V249.575H445.412V234.589Z" fill="#74C7E5"/>
<path d="M459.354 258.016H410.792V331.429H459.354V258.016Z" fill="#74C7E5"/>
<path d="M461.536 257.163C461.536 264.392 449.626 261.905 435.168 261.905C420.71 261.905 408.421 264.202 408.421 256.973C408.421 249.744 420.71 242.177 435.168 242.177C449.626 242.177 461.536 249.934 461.536 257.163Z" fill="#74C7E5"/>
<path d="M461.536 264.94H408.99V270.631H461.536V264.94Z" fill="#3F3D56"/>
<path d="M461.915 319.952H409.369V325.643H461.915V319.952Z" fill="#3F3D56"/>
<path d="M461.536 295.292H408.99V306.673H461.536V295.292Z" fill="#3F3D56"/>
<path d="M461.157 328.868C461.157 331.278 461.922 338.163 435.737 338.163C406.145 338.163 408.611 330.898 408.611 328.489C408.611 326.079 421.698 329.437 435.737 329.437C449.776 329.437 461.157 326.458 461.157 328.868Z" fill="#74C7E5"/>
<path d="M447.119 231.933H422.838V240.09H447.119V231.933Z" fill="#3F3D56"/>
<path opacity="0.1" d="M416.293 275.468H413.068V293.3H416.293V275.468Z" fill="white"/>
<path opacity="0.1" d="M416.293 309.424H413.068V316.063H416.293V309.424Z" fill="white"/>
<path d="M469.642 295.149C469.642 295.149 447.056 265.43 448.245 286.828C449.433 308.226 462.51 318.925 464.887 318.925C467.265 318.925 476.775 316.547 469.642 295.149Z" fill="#A0616A"/>
<path opacity="0.1" d="M361.464 318.043C363.248 318.33 391.778 307.631 391.778 307.631L409.609 305.254L361.464 325.388L361.464 318.043Z" fill="black"/>
<path d="M324.613 297.527C324.613 297.527 334.123 291.583 353.143 293.96L389.995 284.45C389.995 284.45 424.469 264.241 437.546 289.205C450.622 314.17 388.806 305.848 388.806 305.848C388.806 305.848 347.199 339.134 322.235 321.302L324.613 297.527Z" fill="#A0616A"/>
<path d="M369.192 94.8426C378.383 94.8426 385.834 87.3914 385.834 78.1999C385.834 69.0083 378.383 61.5571 369.192 61.5571C360 61.5571 352.549 69.0083 352.549 78.1999C352.549 87.3914 360 94.8426 369.192 94.8426Z" fill="#2F2E41"/>
<path d="M471.425 90.0872C480.617 90.0872 488.068 82.636 488.068 73.4445C488.068 64.253 480.617 56.8018 471.425 56.8018C462.234 56.8018 454.783 64.253 454.783 73.4445C454.783 82.636 462.234 90.0872 471.425 90.0872Z" fill="#2F2E41"/>
<path d="M453.594 66.3122C453.595 62.2074 455.112 58.2477 457.855 55.1938C460.598 52.14 464.372 50.2076 468.454 49.7678C466.129 49.514 463.778 49.7526 461.552 50.4683C459.326 51.184 457.276 52.3606 455.536 53.9215C453.795 55.4824 452.403 57.3925 451.449 59.5275C450.496 61.6624 450.004 63.9742 450.004 66.3122C450.004 68.6502 450.496 70.962 451.449 73.0969C452.403 75.2318 453.795 77.1419 455.536 78.7028C457.276 80.2637 459.326 81.4404 461.552 82.156C463.778 82.8717 466.129 83.1104 468.454 82.8565C464.372 82.4168 460.598 80.4843 457.855 77.4305C455.112 74.3767 453.595 70.4169 453.594 66.3122V66.3122Z" fill="#2F2E41"/>
<path d="M350.596 91.6617C347.723 88.7294 346.036 84.839 345.858 80.7381C345.68 76.6372 347.024 72.6151 349.631 69.4448C349.163 69.8133 348.715 70.2064 348.288 70.6225C345.137 73.712 343.342 77.9265 343.298 82.3392C343.254 86.7519 344.964 91.0015 348.053 94.1536C351.141 97.3057 355.355 99.1021 359.767 99.1479C364.18 99.1936 368.43 97.485 371.584 94.3977C372.008 93.9799 372.41 93.5399 372.788 93.0794C369.566 95.6216 365.517 96.883 361.421 96.6213C357.324 96.3596 353.469 94.5933 350.596 91.6617V91.6617Z" fill="#2F2E41"/>
<path d="M420.309 92.4648C400.612 92.4648 384.646 101.779 384.646 113.268C384.646 118.409 387.855 123.107 393.153 126.737L400.018 121.763L398.151 129.556C398.926 129.915 399.717 130.262 400.542 130.584L410.798 118.618V133.318C413.943 133.822 417.123 134.074 420.309 134.072C440.005 134.072 455.971 124.758 455.971 113.268C455.971 101.779 440.005 92.4648 420.309 92.4648Z" fill="#2F2E41"/>
<path d="M454.783 73.4443C454.783 73.4443 452.198 85.332 468.35 90.0871Z" fill="#74C7E5"/>
<path d="M384.646 75.6084C384.646 75.6084 390.589 88.8987 372.758 94.8425Z" fill="#74C7E5"/>
<path d="M257.714 424.666C274.166 424.666 287.503 411.329 287.503 394.877C287.503 378.425 274.166 365.088 257.714 365.088C241.262 365.088 227.925 378.425 227.925 394.877C227.925 411.329 241.262 424.666 257.714 424.666Z" fill="#74C7E5"/>
<path d="M251.299 419.233C254.206 416.881 252.366 409.79 247.19 403.397C242.014 397.003 235.462 393.727 232.556 396.08C229.65 398.433 231.49 405.523 236.666 411.916C241.841 418.31 248.393 421.586 251.299 419.233Z" fill="white"/>
<path d="M62.8643 336.765C79.3163 336.765 92.6533 323.428 92.6533 306.976C92.6533 290.524 79.3163 277.187 62.8643 277.187C46.4122 277.187 33.0752 290.524 33.0752 306.976C33.0752 323.428 46.4122 336.765 62.8643 336.765Z" fill="#3F3D56"/>
<path d="M49.7905 303.45C51.9321 295.508 50.7415 288.28 47.1314 287.307C43.5212 286.333 38.8585 291.983 36.717 299.925C34.5754 307.868 35.766 315.095 39.3762 316.069C42.9863 317.042 47.649 311.393 49.7905 303.45Z" fill="white"/>
<path d="M18.7109 150.487C28.9638 150.487 37.2753 142.175 37.2753 131.922C37.2753 121.669 28.9638 113.358 18.7109 113.358C8.45806 113.358 0.146484 121.669 0.146484 131.922C0.146484 142.175 8.45806 150.487 18.7109 150.487Z" fill="#3F3D56"/>
<path d="M10.5639 129.725C11.8985 124.776 11.1566 120.271 8.90671 119.665C6.65687 119.058 3.7511 122.579 2.4165 127.529C1.08191 132.478 1.82386 136.982 4.07371 137.589C6.32355 138.196 9.2293 134.675 10.5639 129.725Z" fill="white"/>
<path d="M211.058 609.745C221.311 609.745 229.622 601.433 229.622 591.18C229.622 580.927 221.311 572.616 211.058 572.616C200.805 572.616 192.494 580.927 192.494 591.18C192.494 601.433 200.805 609.745 211.058 609.745Z" fill="#3F3D56"/>
<path d="M202.913 588.984C204.248 584.035 203.506 579.53 201.256 578.924C199.006 578.317 196.1 581.838 194.766 586.787C193.431 591.737 194.173 596.241 196.423 596.848C198.673 597.455 201.578 593.934 202.913 588.984Z" fill="white"/>
<path d="M787.792 403.114C804.245 403.114 817.582 389.777 817.582 373.325C817.582 356.873 804.245 343.536 787.792 343.536C771.34 343.536 758.003 356.873 758.003 373.325C758.003 389.777 771.34 403.114 787.792 403.114Z" fill="#3F3D56"/>
<path d="M767.482 388.219C771.221 388.219 774.252 381.551 774.252 373.325C774.252 365.099 771.221 358.43 767.482 358.43C763.743 358.43 760.711 365.099 760.711 373.325C760.711 381.551 763.743 388.219 767.482 388.219Z" fill="white"/>
<path d="M691.655 212.193C708.107 212.193 721.444 198.856 721.444 182.404C721.444 165.952 708.107 152.615 691.655 152.615C675.203 152.615 661.866 165.952 661.866 182.404C661.866 198.856 675.203 212.193 691.655 212.193Z" fill="#74C7E5"/>
<path d="M683.712 171.439C690.374 166.613 693.996 160.246 691.802 157.218C689.609 154.19 682.43 155.647 675.768 160.473C669.107 165.298 665.484 171.665 667.678 174.693C669.871 177.721 677.05 176.264 683.712 171.439Z" fill="white"/>
<path d="M767.482 37.1288C777.735 37.1288 786.046 28.8173 786.046 18.5644C786.046 8.31157 777.735 0 767.482 0C757.229 0 748.917 8.31157 748.917 18.5644C748.917 28.8173 757.229 37.1288 767.482 37.1288Z" fill="#74C7E5"/>
<path d="M628.015 515.108C638.268 515.108 646.579 506.796 646.579 496.543C646.579 486.291 638.268 477.979 628.015 477.979C617.762 477.979 609.45 486.291 609.45 496.543C609.45 506.796 617.762 515.108 628.015 515.108Z" fill="#3F3D56"/>
<path d="M623.065 489.709C627.216 486.702 629.474 482.734 628.107 480.847C626.74 478.96 622.266 479.868 618.114 482.876C613.963 485.883 611.705 489.851 613.072 491.738C614.439 493.625 618.913 492.717 623.065 489.709Z" fill="white"/>
</svg>
