<svg width="728" height="750" viewBox="0 0 728 750" fill="none" xmlns="http://www.w3.org/2000/svg">
<path d="M275.5 551C427.654 551 551 427.654 551 275.5C551 123.346 427.654 0 275.5 0C123.346 0 0 123.346 0 275.5C0 427.654 123.346 551 275.5 551Z" fill="#F2F2F2"/>
<path d="M299.535 385.065C323.451 371.919 353.217 374.558 378.985 383.546C404.753 392.534 428.105 407.259 453.128 418.15C529.596 451.431 621.759 446.065 693.848 404.133C700.666 419.994 693.352 438.135 685.318 453.416C677.283 468.696 668.127 485.258 671.434 502.202C675.666 523.885 698.397 536.885 707.608 556.965C716.351 576.026 711.658 598.411 704.951 618.281C698.243 638.151 689.539 658.169 690.679 679.11C691.818 700.05 707.031 722.193 728 722.21C696.924 727.039 665.237 731.872 634.179 726.923C603.122 721.974 572.229 705.547 557.809 677.596C550.601 663.625 547.823 647.562 539.545 634.197C525.446 611.434 498.388 600.729 472.858 592.661C447.328 584.594 420.007 576.822 402.032 556.977C384.905 538.068 379.481 511.728 370.406 487.883C355.124 447.967 328.581 413.348 294 388.231" fill="#F0C987"/>
<path d="M327.129 286.355C318.739 282.457 308.437 281.178 299.9 284.801C291.363 288.424 285.543 297.711 288.304 305.929C289.555 309.656 292.406 313.32 291.295 317.083C290.44 319.98 287.458 321.892 284.53 323.252C281.602 324.612 278.398 325.755 276.28 328.049C274.162 330.342 273.721 334.29 276.366 336.069C277.238 336.655 278.327 336.933 279.173 337.55C279.893 338.135 280.413 338.93 280.659 339.823C280.906 340.717 280.868 341.666 280.549 342.536C279.845 344.289 278.68 345.819 277.179 346.966C274.175 349.553 270.206 352.514 271.139 356.187C271.485 357.169 272.063 358.053 272.823 358.764C273.584 359.475 274.506 359.992 275.509 360.271C277.593 360.871 279.756 361.157 281.925 361.117L370.55 363.906C373.475 364.125 376.417 363.961 379.3 363.417C380.701 363.162 382.035 362.621 383.217 361.827C384.4 361.034 385.405 360.005 386.172 358.806C387.869 355.668 386.755 351.802 384.659 348.872C382.563 345.942 379.597 343.63 377.146 340.939C374.695 338.249 372.69 334.89 373.122 331.412C373.467 328.628 375.305 326.222 376.625 323.693C377.944 321.163 378.71 318.003 377.002 315.676C374.594 312.397 368.813 312.693 366.075 309.638C364.009 307.332 364.408 304.012 364.202 301.039C363.708 293.886 358.751 287.131 351.694 283.995C348.106 282.456 344.203 281.792 340.307 282.057C336.411 282.322 332.634 283.509 329.288 285.519L327.129 286.355Z" fill="#2F2E41"/>
<path d="M270.896 736L257 731.808L266.491 676L287 682.187L270.896 736Z" fill="#A0616A"/>
<path d="M270.613 750L226 736.538L226.17 735.971C226.855 733.681 227.982 731.548 229.488 729.696C230.993 727.843 232.847 726.306 234.944 725.173C237.041 724.04 239.34 723.333 241.709 723.093C244.078 722.852 246.471 723.082 248.751 723.77L248.752 723.77L276 731.993L270.613 750Z" fill="#2F2E41"/>
<path d="M401.998 736L387.769 735.999L381 680L402 680.001L401.998 736Z" fill="#A0616A"/>
<path d="M405.999 750L359 749.998V749.432C359 747.143 359.473 744.876 360.392 742.761C361.312 740.646 362.659 738.724 364.358 737.106C366.057 735.487 368.073 734.203 370.293 733.327C372.512 732.451 374.891 732 377.293 732H377.295L406 732.001L405.999 750Z" fill="#2F2E41"/>
<path d="M382.146 694C380.878 693.999 379.651 693.548 378.687 692.727C377.722 691.906 377.081 690.769 376.881 689.52L355.3 555.223C355.157 554.334 354.727 553.515 354.075 552.891C353.424 552.268 352.586 551.873 351.689 551.767C350.792 551.662 349.885 551.851 349.106 552.306C348.327 552.762 347.717 553.458 347.371 554.29L291.459 688.565C290.939 689.804 289.969 690.803 288.743 691.36C287.517 691.918 286.125 691.994 284.846 691.573L264.651 684.857C263.393 684.443 262.336 683.576 261.686 682.426C261.035 681.275 260.839 679.923 261.134 678.636L306.954 476.375C307.178 475.401 307.672 474.509 308.378 473.8C309.085 473.091 309.976 472.593 310.951 472.364L372.401 458.134C373.156 457.963 373.939 457.956 374.698 458.113C375.456 458.27 376.172 458.587 376.796 459.044C417.259 488.373 413.841 584.195 406.3 688.242C406.206 689.544 405.635 690.766 404.696 691.677C403.758 692.587 402.516 693.121 401.209 693.178L382.38 693.995C382.302 693.998 382.224 694 382.146 694Z" fill="#2F2E41"/>
<path d="M330 363C346.016 363 359 350.016 359 334C359 317.984 346.016 305 330 305C313.984 305 301 317.984 301 334C301 350.016 313.984 363 330 363Z" fill="#A0616A"/>
<path d="M331.318 485C324.299 484.955 317.378 483.359 311.052 480.327L310.835 480.226L310.748 480.002L284.524 412.209L284.025 400.43C283.858 396.491 284.52 392.561 285.967 388.892C287.415 385.224 289.616 381.898 292.43 379.13C295.243 376.362 298.607 374.213 302.304 372.82C306 371.427 309.948 370.823 313.893 371.045L341.735 372.61C348.926 373.017 355.692 376.145 360.654 381.355C365.616 386.565 368.402 393.466 368.444 400.653C369.167 402.039 374.302 412.877 364.238 423.06C363.862 425.379 360.342 449.484 373.627 462.74L374 463.112L373.674 463.526C373.462 463.795 356.4 484.997 331.318 485Z" fill="#3F3D56"/>
<path d="M370.114 490.253C371.75 489.657 373.235 488.708 374.466 487.472C375.697 486.237 376.644 484.745 377.239 483.102C377.835 481.458 378.064 479.704 377.912 477.962C377.76 476.22 377.23 474.533 376.359 473.019L404 440.851L382.21 438L359.302 468.985C356.869 470.624 355.119 473.103 354.384 475.953C353.648 478.803 353.978 481.825 355.31 484.446C356.643 487.068 358.886 489.107 361.615 490.177C364.343 491.248 367.368 491.274 370.114 490.253V490.253Z" fill="#A0616A"/>
<path d="M387.068 465C386.029 465 385.014 464.696 384.147 464.126L370.476 455.179C369.327 454.43 368.512 453.266 368.204 451.931C367.895 450.596 368.116 449.194 368.82 448.018L378.717 431.426C379.253 430.528 379.592 429.528 379.712 428.49C379.833 427.453 379.732 426.401 379.416 425.405C379.101 424.409 378.578 423.491 377.881 422.711C377.185 421.931 376.331 421.307 375.376 420.88L346.943 408.16C343.447 406.576 340.592 403.854 338.849 400.44C337.105 397.025 336.574 393.122 337.344 389.367V389.367C337.876 386.836 338.985 384.461 340.587 382.427C342.188 380.393 344.239 378.755 346.578 377.64C348.917 376.526 351.483 375.965 354.075 376.002C356.667 376.038 359.215 376.671 361.522 377.85L404.656 399.906C407.566 401.394 410.12 403.492 412.141 406.056C414.163 408.62 415.606 411.59 416.371 414.762C417.135 417.934 417.204 421.234 416.572 424.435C415.94 427.636 414.622 430.663 412.709 433.309L391.385 462.793C390.893 463.476 390.245 464.033 389.494 464.417C388.743 464.801 387.911 465.001 387.068 465Z" fill="#3F3D56"/>
<path d="M300.248 330.34C309.427 329.605 317.047 320.455 316.093 311.317C315.985 315.084 317.269 318.758 319.7 321.642C322.131 324.526 325.539 326.418 329.277 326.957C333.487 327.42 338.102 326.149 341.767 328.268C345.826 330.616 347.125 336.316 351.353 338.344C355.439 340.303 360.628 337.631 362.646 333.581C364.665 329.531 364.169 324.666 362.831 320.345C360.924 314.182 357.45 308.616 352.748 304.19C348.047 299.763 342.277 296.626 336 295.084C329.724 293.542 323.154 293.647 316.93 295.388C310.706 297.13 305.04 300.45 300.482 305.024C296.623 308.897 293.559 313.834 293.062 319.274C292.565 324.713 295.093 330.616 299.989 333.059L300.248 330.34Z" fill="#2F2E41"/>
<path d="M232.687 249.469C234.217 250.293 235.547 251.444 236.584 252.839C237.621 254.234 238.339 255.839 238.689 257.542C239.039 259.245 239.011 261.003 238.608 262.694C238.205 264.385 237.437 265.967 236.356 267.329L259 303L237.056 302.624L218.917 268.808C216.752 266.84 215.382 264.147 215.069 261.237C214.755 258.327 215.52 255.403 217.217 253.019C218.914 250.635 221.427 248.957 224.278 248.303C227.129 247.648 230.121 248.063 232.687 249.469V249.469Z" fill="#A0616A"/>
<path d="M251.2 275.244L280.239 344.027L310.685 395.777C311.97 397.961 312.744 400.41 312.946 402.938C313.149 405.466 312.776 408.007 311.856 410.37C310.935 412.732 309.491 414.854 307.633 416.575C305.775 418.296 303.55 419.571 301.128 420.304C297.287 421.447 293.165 421.175 289.506 419.538C285.847 417.9 282.894 415.005 281.178 411.375L222.499 285.691C222.18 285.008 222.01 284.265 222 283.511C221.99 282.757 222.141 282.01 222.441 281.319C222.742 280.628 223.186 280.009 223.744 279.503C224.301 278.997 224.96 278.617 225.676 278.386L244.703 272.26C245.063 272.143 245.435 272.065 245.812 272.027C246.935 271.913 248.066 272.164 249.036 272.744C250.006 273.323 250.765 274.2 251.2 275.244Z" fill="#3F3D56"/>
</svg>
