<svg width="364" height="593" viewBox="-110 0 664 100" fill="none" xmlns="http://www.w3.org/2000/svg">
<path d="M85.2328 500.157L60.2666 592.456H145.757L155.592 583.377L159.375 592.456H250.917C250.917 592.456 260.752 532.688 248.648 528.149C236.543 523.61 85.2328 500.157 85.2328 500.157Z" fill="#2F2E41"/>
<path d="M181.314 136.256C210.145 136.256 233.516 112.884 233.516 84.0536C233.516 55.2232 210.145 31.8516 181.314 31.8516C152.484 31.8516 129.112 55.2232 129.112 84.0536C129.112 112.884 152.484 136.256 181.314 136.256Z" fill="#A0616A"/>
<path d="M142.352 110.155C142.352 110.155 152.188 184.297 137.057 192.619C121.926 200.941 227.086 201.697 227.086 201.697C227.086 201.697 203.633 137.391 214.225 117.72L142.352 110.155Z" fill="#A0616A"/>
<path d="M177.532 180.136C177.532 180.136 151.046 176.18 145.375 163.027L65.5625 198.293C65.5625 198.293 79.937 303.454 88.259 322.367L77.6673 512.262C77.6673 512.262 151.809 561.437 251.674 534.958L276.64 326.15L303.876 202.076L216.676 167.054C216.676 167.054 199.472 178.623 177.532 180.136Z" fill="#D36060"/>
<path d="M232.76 419.206C232.76 419.206 136.678 416.18 143.487 444.929C150.296 473.677 238.813 443.415 238.813 443.415L232.76 419.206Z" fill="#A0616A"/>
<path d="M137.887 34.6754L128.127 30.7679C128.127 30.7679 148.535 8.29953 176.929 10.2534L168.943 1.46139C168.943 1.46139 188.464 -6.35364 206.211 14.1609C215.54 24.9449 226.333 37.6209 233.062 51.9004H243.515L239.152 61.5064L254.421 71.1124L238.749 69.3869C239.683 74.6472 239.826 80.0175 239.174 85.3202C238.502 90.6245 235.795 95.4601 231.625 98.8065V98.8065C231.625 98.8065 219.52 73.7507 219.52 69.8432V79.612C219.52 79.612 209.76 70.8201 209.76 64.9588L204.436 71.797L201.774 61.0512L168.943 71.797L174.267 63.0051L153.859 65.9357L161.845 55.1899C161.845 55.1899 138.775 67.8894 137.887 78.6352C137 89.3808 130.247 99.563 130.247 99.563C130.247 99.563 112.155 49.3286 137.887 34.6754Z" fill="#2F2E41"/>
<path d="M280.423 202.076H303.876C303.876 202.076 378.774 365.491 360.617 385.161C342.46 404.831 232.76 458.546 232.76 458.546C232.76 458.546 224.438 416.936 216.873 416.936L292.528 370.03L255.457 281.514L280.423 202.076Z" fill="#D36060"/>
<path d="M112.469 412.396C112.469 412.396 197.959 457.789 182.071 477.46C166.184 497.13 89.772 442.659 89.772 442.659L112.469 412.396Z" fill="#A0616A"/>
<path d="M76.1541 199.049H65.5624C65.5624 199.049 50.4314 213.424 45.892 245.955L1.93957 343.897C0.610861 346.858 -0.0502836 350.076 0.00298087 353.321C0.0562453 356.567 0.822593 359.761 2.24776 362.677C12.0021 382.655 37.6761 427.737 76.1541 441.146L95.8245 456.277C95.8245 456.277 93.5548 419.206 124.573 419.206L71.6148 361.708L92.0417 295.131L76.1541 199.049Z" fill="#D36060"/>
<path d="M136.56 295.173L145.615 305.737C148.979 305.096 152.492 304.342 156.11 303.495L153.509 295.173L159.868 302.592C198.2 293.164 245.712 274.835 245.712 274.835C245.712 274.835 194.418 278.596 156.119 270.228C139.173 266.526 121.739 274.927 114.785 290.817C110.743 300.053 111.378 308.055 125.713 308.055C130.557 307.972 135.387 307.518 140.161 306.696L136.56 295.173Z" fill="white"/>
</svg>
