<svg width="184" height="360" viewBox="0 20 200 300" fill="none" xmlns="http://www.w3.org/2000/svg">
<path d="M140.97 65.4409L162.14 78.8409L147.14 37.7909L143.09 29.7009C142.55 29.0209 141.89 28.2409 141.09 27.3509C140.386 26.5913 139.558 25.9587 138.64 25.4809C137.528 24.8328 136.329 24.3479 135.08 24.0409C134.832 24.023 134.596 23.9279 134.404 23.7691C134.213 23.6102 134.077 23.3955 134.014 23.155C133.951 22.9145 133.965 22.6604 134.054 22.4284C134.143 22.1963 134.302 21.9978 134.51 21.8609C135.46 21.3609 138.69 21.7509 141.88 23.8609C145.07 25.9709 143.24 20.2309 142.6 18.1409C141.96 16.0509 140.31 9.50089 140.8 8.79089C141.52 7.79089 142.75 8.34089 143.34 10.4409C143.93 12.5409 146.12 18.7209 147.2 18.3309C148.28 17.9409 144.91 7.33089 144.91 7.33089C144.91 7.33089 143.82 5.18089 145.06 4.69089C147.3 3.81089 150.06 15.3309 150.29 16.4309C150.45 17.2009 151.65 16.8209 151.43 16.0109C151.21 15.2009 147.82 5.52089 150.09 4.60089C151.84 3.89089 152.45 14.0609 154.26 15.6709C156.07 17.2809 153.01 8.01089 154.71 7.40089C155.34 7.17089 155.84 7.09089 156.82 12.6709C157.3 15.3809 157.82 24.8809 157.82 24.8809L162.75 34.6009L162.63 34.7109L182.81 77.3309C186.68 87.5509 180.36 95.8109 174.03 99.5509C171.133 101.26 167.813 102.116 164.452 102.02C161.09 101.925 157.824 100.882 155.03 99.0109L130.58 82.6809L140.97 65.4409Z" fill="#C27D59"/>
<path d="M27.1596 155.371C26.6496 156.121 26.0896 157.021 25.4696 158.101C24.9409 159.031 24.5788 160.046 24.3996 161.101C24.114 162.413 24.0131 163.76 24.0996 165.101C24.166 165.355 24.1496 165.625 24.0527 165.87C23.9558 166.114 23.7835 166.322 23.5607 166.462C23.3379 166.603 23.0762 166.669 22.8135 166.65C22.5508 166.632 22.3008 166.53 22.0996 166.361C21.2996 165.581 20.6696 162.261 21.6996 158.451C22.7296 154.641 17.6997 158.261 15.8297 159.551C13.9597 160.841 8.00964 164.551 7.15964 164.291C5.91964 163.911 6.08962 162.501 7.98962 161.291C9.88962 160.081 15.2796 155.931 14.5596 154.981C13.8396 154.031 4.43964 160.721 4.43964 160.721C4.43964 160.721 2.66964 162.471 1.78964 161.401C0.209642 159.471 10.7196 153.101 11.7296 152.521C12.4396 152.121 11.7296 151.061 10.9496 151.521C10.1696 151.981 1.73965 158.401 0.10965 156.451C-1.14035 154.951 8.69964 151.131 9.71964 148.831C10.7396 146.531 2.54964 152.491 1.40964 151.011C0.989637 150.461 0.749646 150.011 5.94965 147.251C8.46965 145.911 17.6896 142.371 17.6896 142.371L74.2396 69.3706L90.6396 84.1506L27.1596 155.371Z" fill="#C27D59"/>
<path d="M127.79 333.961L126.71 352.481C126.71 352.481 145.18 359.801 145.31 363.241L109.31 363.061L109.82 333.511L127.79 333.961Z" fill="#455A64"/>
<g opacity="0.6">
<path opacity="0.6" d="M115.62 350.671C115.271 350.771 114.971 350.995 114.776 351.301C114.581 351.606 114.504 351.972 114.56 352.331C114.646 352.684 114.863 352.99 115.168 353.187C115.474 353.385 115.843 353.457 116.2 353.391C116.569 353.287 116.887 353.05 117.091 352.724C117.294 352.398 117.369 352.008 117.3 351.631C117.174 351.272 116.914 350.976 116.574 350.806C116.234 350.637 115.842 350.606 115.48 350.721" fill="white"/>
</g>
<g opacity="0.6">
<path opacity="0.6" d="M109.309 363.061V360.061L143.879 361.391C143.879 361.391 145.469 362.121 145.259 363.241L109.309 363.061Z" fill="white"/>
</g>
<path d="M127.3 352.311C127.3 352.491 126.41 352.551 125.53 353.091C124.65 353.631 124.18 354.371 124.02 354.291C123.86 354.211 124.14 353.211 125.22 352.571C126.3 351.931 127.34 352.151 127.3 352.311Z" fill="#263238"/>
<path d="M131.04 353.961C131.04 354.131 130.31 354.411 129.69 355.141C129.07 355.871 128.89 356.651 128.69 356.641C128.49 356.631 128.42 355.641 129.2 354.741C129.98 353.841 131.04 353.791 131.04 353.961Z" fill="#263238"/>
<path d="M133.08 358.521C132.92 358.521 132.7 357.671 133.17 356.721C133.64 355.771 134.47 355.401 134.54 355.551C134.61 355.701 134.089 356.201 133.719 356.991C133.349 357.781 133.26 358.511 133.08 358.521Z" fill="#263238"/>
<path d="M127.079 348.061C126.999 348.221 126.199 347.961 125.199 348.011C124.199 348.061 123.429 348.351 123.339 348.201C123.249 348.051 124.009 347.431 125.179 347.401C126.349 347.371 127.169 347.931 127.079 348.061Z" fill="#263238"/>
<path d="M127.229 344.321C126.633 344.475 126.006 344.457 125.419 344.271C124.772 344.145 124.144 343.937 123.549 343.651C123.204 343.483 122.87 343.293 122.549 343.081C122.345 342.967 122.162 342.818 122.009 342.641C121.898 342.514 121.831 342.354 121.82 342.186C121.809 342.018 121.855 341.85 121.949 341.711C122.042 341.591 122.16 341.494 122.295 341.426C122.43 341.359 122.578 341.323 122.729 341.321C122.96 341.327 123.189 341.364 123.409 341.431C123.791 341.535 124.162 341.673 124.52 341.841C125.121 342.131 125.674 342.512 126.159 342.971C126.969 343.761 127.239 344.421 127.159 344.461C127.079 344.501 126.689 343.951 125.849 343.301C125.365 342.918 124.834 342.599 124.27 342.351C123.944 342.215 123.61 342.101 123.27 342.011C122.89 341.901 122.559 341.891 122.459 342.061C122.359 342.231 122.459 342.151 122.459 342.261C122.573 342.387 122.704 342.494 122.849 342.581C123.153 342.787 123.467 342.977 123.789 343.151C124.343 343.438 124.922 343.672 125.52 343.851C126.099 343.971 126.67 344.128 127.229 344.321V344.321Z" fill="#263238"/>
<path d="M126.99 344.571C126.659 344.05 126.504 343.436 126.55 342.821C126.535 342.142 126.633 341.467 126.84 340.821C126.965 340.445 127.129 340.083 127.33 339.741C127.433 339.505 127.595 339.3 127.8 339.145C128.004 338.989 128.245 338.888 128.5 338.851C128.659 338.86 128.813 338.914 128.943 339.005C129.074 339.097 129.177 339.224 129.24 339.371C129.324 339.586 129.381 339.811 129.41 340.041C129.475 340.441 129.475 340.85 129.41 341.251C129.296 341.925 129.018 342.56 128.6 343.101C127.88 344.011 127.14 344.211 127.13 344.101C127.12 343.991 127.69 343.681 128.25 342.801C128.566 342.288 128.774 341.716 128.86 341.121C128.905 340.772 128.905 340.419 128.86 340.071C128.81 339.691 128.67 339.381 128.53 339.411C128.39 339.441 128.04 339.691 127.88 339.991C127.696 340.309 127.542 340.644 127.42 340.991C127.201 341.565 127.07 342.168 127.03 342.781C126.88 343.881 127.09 344.551 126.99 344.571Z" fill="#263238"/>
<path d="M65.4995 333.691L64.0895 352.191C64.0895 352.191 82.4195 359.841 82.4895 363.281L46.4895 361.841L49.3895 333.001L65.4995 333.691Z" fill="#455A64"/>
<g opacity="0.6">
<path opacity="0.6" d="M53.0295 350.151C52.6809 350.243 52.3783 350.46 52.1792 350.76C51.9801 351.061 51.8984 351.424 51.9495 351.781C52.0267 352.134 52.2369 352.445 52.5366 352.648C52.8363 352.851 53.2025 352.931 53.5595 352.871C53.9315 352.774 54.2541 352.542 54.4648 352.221C54.6754 351.899 54.7591 351.511 54.6995 351.131C54.5802 350.771 54.3256 350.472 53.9897 350.297C53.6538 350.121 53.2629 350.083 52.8995 350.191" fill="white"/>
</g>
<g opacity="0.6">
<path opacity="0.6" d="M46.5195 361.841L46.7394 358.921L81.1494 361.401C81.1494 361.401 82.7194 362.161 82.4894 363.281L46.5195 361.841Z" fill="white"/>
</g>
<path d="M64.6795 352.031C64.6795 352.211 63.7895 352.251 62.8995 352.781C62.0095 353.311 61.5195 354.031 61.3595 353.961C61.1995 353.891 61.5095 352.881 62.5895 352.251C63.6695 351.621 64.7295 351.871 64.6795 352.031Z" fill="#263238"/>
<path d="M68.3896 353.751C68.3896 353.921 67.6496 354.181 67.0296 354.901C66.4096 355.621 66.1996 356.401 66.0296 356.391C65.8596 356.381 65.7797 355.391 66.5797 354.501C67.3797 353.611 68.3896 353.581 68.3896 353.751Z" fill="#263238"/>
<path d="M70.3495 358.351C70.1895 358.351 69.9795 357.491 70.4695 356.551C70.9595 355.611 71.7995 355.251 71.8695 355.401C71.9395 355.551 71.4095 356.051 71.0195 356.831C70.6295 357.611 70.5295 358.341 70.3495 358.351Z" fill="#263238"/>
<path d="M64.5396 347.781C64.4596 347.941 63.6596 347.661 62.6596 347.691C61.6596 347.721 60.8796 348.001 60.7996 347.851C60.7196 347.701 61.4796 347.091 62.6496 347.081C63.8196 347.071 64.6296 347.651 64.5396 347.781Z" fill="#263238"/>
<path d="M64.7495 344.041C64.1541 344.186 63.5297 344.158 62.9495 343.961C62.3055 343.82 61.6809 343.602 61.0895 343.311C60.7423 343.139 60.4081 342.942 60.0895 342.721C59.8912 342.599 59.7125 342.447 59.5595 342.271C59.4541 342.137 59.3968 341.971 59.3968 341.801C59.3968 341.63 59.4541 341.465 59.5595 341.331C59.6536 341.215 59.7726 341.121 59.9075 341.057C60.0425 340.993 60.1901 340.96 60.3395 340.961C60.5674 340.969 60.7929 341.01 61.0095 341.081C61.3912 341.192 61.7625 341.336 62.1195 341.511C62.7165 341.811 63.2631 342.202 63.7395 342.671C64.5395 343.481 64.7995 344.141 64.7395 344.171C64.6795 344.201 64.2695 343.661 63.4495 342.991C62.6915 342.367 61.8082 341.914 60.8595 341.661C60.4795 341.551 60.1495 341.531 60.0495 341.661C59.9495 341.791 60.0495 341.741 60.0495 341.861C60.1655 341.984 60.2965 342.091 60.4395 342.181C60.7379 342.395 61.0484 342.592 61.3695 342.771C61.916 343.066 62.4884 343.31 63.0795 343.501C63.6475 343.644 64.2053 343.824 64.7495 344.041V344.041Z" fill="#263238"/>
<path d="M64.5096 344.291C64.1988 343.759 64.0591 343.144 64.1096 342.531C64.1022 341.851 64.2104 341.174 64.4296 340.531C64.5625 340.157 64.7334 339.799 64.9396 339.461C65.0443 339.227 65.2083 339.025 65.4153 338.874C65.6223 338.723 65.8651 338.629 66.1196 338.601C66.2794 338.609 66.4334 338.664 66.5629 338.758C66.6924 338.852 66.792 338.981 66.8496 339.131C66.9361 339.345 66.9901 339.57 67.0096 339.801C67.0588 340.204 67.0419 340.613 66.9596 341.011C66.8365 341.681 66.5477 342.31 66.1196 342.841C65.3796 343.741 64.6396 343.921 64.6296 343.841C64.6196 343.761 65.1996 343.441 65.7696 342.561C66.098 342.059 66.3161 341.493 66.4096 340.901C66.4597 340.552 66.4597 340.199 66.4096 339.851C66.4096 339.471 66.2396 339.151 66.0896 339.191C65.9396 339.231 65.5996 339.451 65.4396 339.751C65.2467 340.069 65.0827 340.403 64.9496 340.751C64.7286 341.322 64.5872 341.921 64.5296 342.531C64.4496 343.601 64.6096 344.261 64.5096 344.291Z" fill="#263238"/>
<path d="M95.1295 20.2708L98.6595 61.2208L119.17 59.5808C119.3 57.1908 119.17 47.9208 119.17 47.9208C119.17 47.9208 127.7 46.6008 127.8 38.0708C127.86 33.9208 127.26 25.3608 126.64 17.6508C126.309 13.5284 124.375 9.70009 121.252 6.9887C118.129 4.27731 114.068 2.8993 109.94 3.15084C107.832 3.27266 105.771 3.81598 103.878 4.74864C101.984 5.68129 100.297 6.98433 98.9161 8.58062C97.5352 10.1769 96.4885 12.034 95.8381 14.042C95.1877 16.05 94.9468 18.1681 95.1295 20.2708Z" fill="#C27D59"/>
<path d="M119.139 47.8006C115.201 47.8757 111.33 46.7756 108.019 44.6406C108.019 44.6406 110.649 50.7806 119.159 50.0106L119.139 47.8006Z" fill="#D1734A"/>
<path d="M124.579 24.691C124.439 24.851 123.479 24.221 122.169 24.281C120.859 24.341 119.929 25.061 119.779 24.901C119.629 24.741 119.849 24.541 120.249 24.221C120.793 23.804 121.452 23.5632 122.136 23.531C122.821 23.4989 123.499 23.6768 124.079 24.041C124.499 24.331 124.649 24.611 124.579 24.691Z" fill="#263238"/>
<path d="M112.58 24.871C112.42 25.021 111.52 24.311 110.21 24.281C108.9 24.251 107.92 24.871 107.78 24.711C107.64 24.551 107.87 24.351 108.3 24.061C108.878 23.6831 109.559 23.4944 110.25 23.521C110.931 23.5396 111.59 23.7742 112.13 24.191C112.52 24.511 112.65 24.801 112.58 24.871Z" fill="#263238"/>
<path d="M116.649 32.8008C117.34 32.5789 118.056 32.4478 118.779 32.4108C119.119 32.4108 119.429 32.3108 119.489 32.0808C119.521 31.7328 119.444 31.3836 119.27 31.0808C118.95 30.2675 118.616 29.4175 118.27 28.5308C117.351 26.3701 116.605 24.1398 116.039 21.8608C117.13 23.9442 118.053 26.111 118.799 28.3408C119.129 29.2308 119.439 30.0808 119.749 30.9008C119.953 31.3057 120.013 31.7675 119.919 32.2108C119.872 32.3293 119.797 32.4352 119.702 32.5202C119.606 32.6052 119.493 32.667 119.369 32.7008C119.184 32.7535 118.992 32.7805 118.799 32.7808C118.086 32.8714 117.364 32.8781 116.649 32.8008Z" fill="#263238"/>
<path d="M112.79 33.7009C113.01 33.7009 113.01 35.1109 114.23 36.1209C115.45 37.1309 116.96 36.9809 116.97 37.1809C116.98 37.3809 116.63 37.4509 115.97 37.4709C115.136 37.4805 114.326 37.1974 113.68 36.6709C113.067 36.1708 112.67 35.455 112.57 34.6709C112.54 34.0509 112.7 33.6909 112.79 33.7009Z" fill="#263238"/>
<path d="M112.229 18.8009C112.099 19.1609 110.789 18.9909 109.229 19.1809C107.669 19.3709 106.449 19.7809 106.229 19.4609C106.139 19.3109 106.359 18.9709 106.859 18.6309C107.527 18.198 108.288 17.9306 109.079 17.8509C109.864 17.7569 110.66 17.853 111.399 18.1309C111.999 18.3609 112.279 18.6409 112.229 18.8009Z" fill="#263238"/>
<path d="M124.29 19.4009C124.02 19.7509 122.99 19.4009 121.74 19.4009C120.49 19.4009 119.43 19.6309 119.19 19.2809C119.08 19.1009 119.25 18.7609 119.71 18.4409C120.331 18.0547 121.052 17.8601 121.783 17.8815C122.514 17.9028 123.222 18.1391 123.82 18.5609C124.26 18.8809 124.41 19.2409 124.29 19.4009Z" fill="#263238"/>
<path d="M104.39 10.9208C103.027 11.9899 102.131 13.5454 101.89 15.2608V15.4308C101.55 17.8608 101.62 20.3408 101.26 22.7708C101.028 25.236 99.9706 27.5509 98.2596 29.3408C97.5196 30.0308 96.2596 30.5108 95.6096 29.7008C95.4004 29.3652 95.2928 28.9762 95.2997 28.5808C94.8497 22.7108 93.2397 17.5008 93.2997 11.3508C93.2966 10.5285 93.4902 9.71744 93.8642 8.98512C94.2382 8.2528 94.7818 7.62047 95.4496 7.14081C96.7296 6.21081 98.2996 5.26081 99.7296 5.93081C101.16 6.60081 103.01 9.2908 104.12 10.4208" fill="#263238"/>
<path d="M98.0096 24.1507C97.8596 24.0907 92.1496 22.4207 92.3296 28.2507C92.5096 34.0807 98.3296 32.7007 98.3296 32.5307C98.3296 32.3607 98.0096 24.1507 98.0096 24.1507Z" fill="#C27D59"/>
<path d="M96.4895 30.3509C96.4895 30.3509 96.3895 30.4309 96.2195 30.5109C95.9761 30.6109 95.703 30.6109 95.4595 30.5109C95.0746 30.284 94.7569 29.9589 94.539 29.5688C94.3211 29.1787 94.2108 28.7377 94.2195 28.2909C94.193 27.7926 94.2749 27.2945 94.4595 26.8309C94.5087 26.6475 94.6018 26.4789 94.7307 26.3395C94.8596 26.2001 95.0205 26.0942 95.1995 26.0309C95.3155 25.9944 95.4407 26.0006 95.5526 26.0482C95.6644 26.0959 95.7555 26.182 95.8095 26.2909C95.8895 26.4509 95.8596 26.5609 95.8896 26.5709C95.9196 26.5809 96.0095 26.4709 95.9595 26.2309C95.9202 26.0883 95.8361 25.9621 95.7195 25.8709C95.5536 25.7553 95.3492 25.7087 95.1495 25.7409C94.9178 25.802 94.705 25.92 94.5304 26.0841C94.3557 26.2483 94.2248 26.4534 94.1495 26.6809C93.9138 27.1938 93.8106 27.7577 93.8495 28.3209C93.8376 28.8405 93.9792 29.352 94.2567 29.7914C94.5342 30.2307 94.9353 30.5785 95.4095 30.7909C95.5684 30.8293 95.7337 30.8331 95.8941 30.8021C96.0546 30.771 96.2065 30.7058 96.3395 30.6109C96.4795 30.5009 96.5095 30.3609 96.4895 30.3509Z" fill="#CB8561"/>
<path d="M99.4296 6.88083C97.9996 4.54083 101.93 1.19083 104.81 0.290829C107.69 -0.609171 111.48 0.780831 114.35 1.73083C116.15 2.33083 117.96 3.17083 119.86 3.09083C121.132 2.96013 122.379 2.64343 123.56 2.15083C124.738 1.64906 126.008 1.39709 127.29 1.41083C127.93 1.42774 128.554 1.61803 129.094 1.96143C129.635 2.30483 130.072 2.78848 130.36 3.36083C130.485 3.65299 130.546 3.96887 130.537 4.28669C130.529 4.60452 130.452 4.91676 130.311 5.20189C130.17 5.48701 129.969 5.73826 129.722 5.93834C129.475 6.13841 129.188 6.28255 128.88 6.36083C129.285 6.14069 129.737 6.02171 130.198 6.014C130.659 6.00629 131.114 6.11009 131.527 6.31656C131.939 6.52302 132.295 6.82604 132.565 7.1998C132.834 7.57356 133.01 8.00699 133.076 8.46316C133.142 8.91933 133.097 9.38473 132.944 9.81972C132.792 10.2547 132.537 10.6464 132.2 10.9614C131.864 11.2764 131.456 11.5055 131.012 11.629C130.568 11.7525 130.1 11.7669 129.65 11.6708C130.48 11.0408 131.75 12.0808 131.65 13.1208C131.538 13.6315 131.294 14.1041 130.943 14.4918C130.593 14.8794 130.147 15.1687 129.65 15.3308C127.22 16.3908 124.38 16.0508 121.86 15.2108C119.34 14.3708 117.01 13.0408 114.52 12.1308C112.03 11.2208 107.84 9.59083 105.34 10.4708C103.49 11.1208 102.21 13.3408 101.17 12.8508C100.677 12.5899 100.253 12.2168 99.9318 11.7617C99.6105 11.3065 99.4007 10.7821 99.3196 10.2308C99.1812 9.12528 99.2183 8.0048 99.4296 6.91083" fill="#263238"/>
<path d="M129.59 6.15069C129.59 6.15069 129.29 6.58069 128.66 7.27069C127.76 8.21074 126.649 8.92363 125.42 9.35068C123.618 10.0097 121.629 9.9379 119.88 9.15069C117.88 8.26069 116.2 6.48069 114.24 4.80069C112.433 3.10249 110.145 2.00555 107.69 1.66069C106.674 1.53557 105.643 1.64444 104.676 1.97896C103.709 2.31347 102.831 2.86477 102.11 3.59069C101.645 4.09663 101.289 4.69179 101.062 5.33992C100.835 5.98806 100.742 6.6756 100.79 7.36068C100.82 7.72771 100.904 8.08827 101.04 8.43068C101.14 8.66068 101.21 8.77069 101.23 8.76069C101.117 8.29763 101.044 7.82599 101.01 7.35068C101.007 6.05296 101.509 4.80505 102.41 3.87069C103.093 3.21471 103.915 2.71983 104.815 2.42225C105.715 2.12466 106.669 2.03188 107.61 2.15069C109.963 2.52741 112.147 3.60418 113.88 5.24068C115.8 6.88068 117.55 8.71069 119.67 9.63069C120.599 10.0425 121.601 10.2652 122.618 10.2858C123.634 10.3064 124.644 10.1245 125.59 9.75068C126.864 9.27799 127.992 8.47781 128.86 7.43068C129.093 7.14849 129.297 6.84364 129.47 6.52069C129.527 6.40369 129.567 6.2791 129.59 6.15069V6.15069Z" fill="#455A64"/>
<path d="M96.5195 23.8806C96.5195 23.8806 96.7694 23.7206 96.9894 23.2606C97.285 22.5957 97.3856 21.8605 97.2795 21.1406C97.1595 19.2606 95.4895 17.2506 95.2795 14.6506C95.1126 13.45 95.3223 12.2272 95.8795 11.1506C96.3746 10.3032 97.1382 9.64513 98.0495 9.28064C98.6604 9.01895 99.3303 8.92572 99.9894 9.01064C100.459 9.09064 100.709 9.20064 100.729 9.15064C100.749 9.10064 100.529 8.94064 100.039 8.79064C99.3318 8.61341 98.5875 8.64818 97.8994 8.89064C96.868 9.25337 95.9925 9.95944 95.4195 10.8906C94.7666 12.0436 94.5003 13.3753 94.6595 14.6906C94.8065 15.9751 95.1861 17.222 95.7795 18.3706C96.257 19.2581 96.6103 20.207 96.8295 21.1906C97.0101 22.0977 96.9017 23.0385 96.5195 23.8806V23.8806Z" fill="#455A64"/>
<path d="M78.9296 152.491L45.4096 347.511L71.8396 350.731L109.37 176.761L106.24 348.221H131.55L141.56 150.781L78.9296 152.491Z" fill="#263238"/>
<path d="M139.08 90.4208L148.53 96.2908L159.25 75.6908C154.54 72.2908 139.44 62.5708 135.61 60.0708C134.662 59.4358 133.658 58.8901 132.61 58.4408C130.061 57.4436 127.391 56.7912 124.67 56.5008C122.25 56.1708 120.41 56.0108 119.22 55.8608C112.331 58.0409 104.938 58.0409 98.0495 55.8608C97.2195 55.8608 96.4095 55.9608 95.6295 56.0508C88.6295 57.0508 81.8395 61.9608 77.6295 66.5208L60.9495 81.5208L77.3095 101.081L82.3695 95.0808L81.1795 122.711L76.3495 157.071H141.7C141.7 157.071 141.84 148.971 141.25 137.711C140.41 121.871 139.58 97.2408 139.58 97.2408" fill="#D36060"/>
<path d="M139.719 107.791C139.473 106.286 139.333 104.765 139.299 103.241C139.109 100.441 138.859 96.5607 138.509 92.2407C138.159 87.9207 137.769 84.1007 137.509 81.3007C137.287 79.7977 137.177 78.2802 137.179 76.7607C137.592 78.2261 137.873 79.7254 138.019 81.2407C138.429 84.0307 138.889 87.9007 139.249 92.1807C139.609 96.4607 139.769 100.361 139.829 103.181C139.929 104.718 139.893 106.26 139.719 107.791V107.791Z" fill="#263238"/>
<path d="M83.5596 80.5308C83.739 81.5638 83.7927 82.6148 83.7196 83.6608C83.7196 85.5908 83.5996 88.2608 83.3896 91.2008C83.1796 94.1408 82.8796 96.7908 82.5996 98.7008C82.5297 99.7479 82.3177 100.781 81.9696 101.771C81.904 100.729 81.9442 99.684 82.0896 98.6508C82.2596 96.4408 82.4496 93.9208 82.6596 91.1408C82.8696 88.3608 83.0396 85.8408 83.2096 83.6408C83.2097 82.5943 83.3271 81.5511 83.5596 80.5308Z" fill="#263238"/>
<path d="M121.162 93.338L118.577 96.3411C117.616 96.1588 116.613 95.9445 115.58 95.7039L116.322 93.338L114.507 95.447C103.561 92.7668 89.9939 87.5559 89.9939 87.5559C89.9939 87.5559 104.641 88.6251 115.577 86.2464C120.416 85.1939 125.395 87.582 127.38 92.0994C128.534 94.7251 128.353 97 124.26 97C122.877 96.9765 121.497 96.8473 120.134 96.6136L121.162 93.338Z" fill="white"/>
</svg>
