<svg width="33" height="27" viewBox="0 0 33 27" fill="none" xmlns="http://www.w3.org/2000/svg">
<path d="M3.50043 0.17993C2.07378 0.566139 0.926584 1.51021 0.308861 2.81187C0.0147077 3.44125 0 3.67011 0 9.40603V15.3422L0.764799 17.0444L1.54431 18.7609V22.8804V27H7.13322H12.7221V22.9377V18.861L14.0605 17.3877C15.5754 15.7141 16.0608 14.9846 16.3108 14.0119L16.502 13.3396L16.605 13.8975C16.7962 14.8416 17.3404 15.6998 18.8258 17.3162L20.2231 18.861V22.9377V27H25.812H31.4009V22.8804V18.7609L32.1804 17.0444L32.9452 15.3422L32.9893 9.86376C33.0334 3.81316 32.9746 3.21239 32.151 2.06806C31.548 1.20982 31.1509 0.895132 30.1507 0.437403C29.283 0.03689 29.2389 0.03689 26.3267 0.03689H23.3852L22.3998 0.508923C20.6055 1.36716 19.7965 2.66883 19.6789 4.95748L19.5906 6.34497L18.8111 6.28775C18.1346 6.23054 17.9287 6.27345 17.4433 6.58814C17.0903 6.817 16.7962 7.1603 16.6785 7.46069L16.502 7.94702L16.2079 7.38917C15.796 6.57384 15.1048 6.21623 14.1047 6.28775L13.3104 6.35927V5.54394C13.3104 3.02643 12.428 1.41008 10.5454 0.508923L9.55999 0.03689L6.91261 0.00828171C4.95649 -0.0203266 4.05932 0.0225849 3.50043 0.17993ZM9.36879 1.10969C10.3542 1.38147 11.2808 2.11098 11.7367 2.96922C12.0603 3.6129 12.1632 4.02772 12.2368 5.07191L12.325 6.35927L11.369 7.10308C10.266 7.93272 10.0012 8.40475 10.1189 9.36312C10.2218 10.25 10.8396 10.8364 11.6632 10.8364C12.7368 10.8364 13.3104 10.064 13.3104 8.61931C13.3104 7.68955 13.634 7.26043 14.34 7.26043C14.59 7.26043 14.9136 7.38917 15.0754 7.54651C15.3548 7.81829 15.3695 8.01854 15.3695 10.7935C15.3695 14.3838 15.3695 14.3838 13.384 16.6153L12.0603 18.1172H11.369L10.6631 18.1315V18.6321C10.6631 19.1042 10.6925 19.1328 11.1778 19.1328H11.6926V22.5657V25.9987H7.13322H2.57384V22.5657V19.1328H6.03015H9.48645V18.6321V18.1315H5.92719H2.35323L1.64726 16.4865L0.941291 14.8273L0.985414 9.22008C1.02954 3.74164 1.04425 3.59859 1.35311 3.02643C1.77963 2.23971 2.76504 1.43869 3.60338 1.18121C4.39759 0.952349 8.54516 0.895132 9.36879 1.10969ZM29.3271 1.19552C29.9007 1.35286 30.3125 1.61033 30.8126 2.11098C31.9598 3.21239 31.9892 3.41264 31.9892 9.60629V14.9131L31.2832 16.4865L30.592 18.06L29.9742 18.1029C29.3565 18.1458 29.3418 18.1601 29.3418 18.6464C29.3418 19.1042 29.3712 19.1328 29.8566 19.1328H30.3714V22.5657V25.9987H25.812H21.2526V22.5657V19.1328H24.7089H28.1652V18.6321V18.1315L24.5324 18.1172H20.8849L19.5612 16.6153C17.5757 14.3838 17.6639 14.6127 17.6051 10.9509C17.561 7.97563 17.5757 7.83259 17.8551 7.56081C18.2522 7.1746 18.9582 7.1746 19.3406 7.54651C19.5612 7.76107 19.6347 8.01854 19.6347 8.61931C19.6347 10.064 20.2083 10.8364 21.282 10.8364C22.1056 10.8364 22.7234 10.25 22.8263 9.36312C22.944 8.41906 22.6792 7.93272 21.5762 7.10308L20.6202 6.37358L20.6937 5.0433C20.7525 3.89898 20.8408 3.59859 21.2085 2.94061C21.6644 2.13958 22.6498 1.36716 23.5176 1.124C24.3412 0.895132 28.4594 0.938044 29.3271 1.19552ZM12.1338 9.54907C11.8103 10.1498 11.1043 9.80655 11.1043 9.03413C11.1043 8.67653 11.222 8.47627 11.6632 8.14728L12.2074 7.71816L12.2515 8.49058C12.2809 8.90539 12.2221 9.39173 12.1338 9.54907ZM21.8409 9.03413C21.8409 9.54907 21.6203 9.83516 21.2232 9.83516C20.8555 9.83516 20.6643 9.39173 20.6643 8.47627V7.66094L21.2526 8.11867C21.7232 8.47627 21.8409 8.66222 21.8409 9.03413Z" fill="#036E90"/>
<path d="M3.67694 22.5658V24.8545H7.10383H10.516V22.5658V20.2772H7.10383H3.67694V22.5658ZM9.48647 22.5658V23.8532H7.10383H4.70648L4.7506 22.5658L4.79472 21.2785H7.14795H9.48647V22.5658Z" fill="#036E90"/>
<path d="M22.4292 22.5658V24.8545H25.8561H29.2683V22.5658V20.2772H25.8561H22.4292V22.5658ZM28.1652 22.5658V23.8532H25.812H23.4587V22.5658V21.2785H25.812H28.1652V22.5658Z" fill="#036E90"/>
</svg>
