<svg width="31" height="31" viewBox="0 0 31 31" xmlns="http://www.w3.org/2000/svg">
<path d="M3.24903 0.204C1.92485 0.642133 0.860038 1.71312 0.286679 3.18979C0.0136514 3.90379 0 4.16342 0 10.6705V17.4048L0.709873 19.3358L1.4334 21.2831V25.9565V30.6299H6.62093H11.8085V26.0214V21.3966L13.0507 19.7252C14.4568 17.8267 14.9073 16.9991 15.1394 15.8956L15.3169 15.133L15.4124 15.7658C15.5899 16.8368 16.095 17.8104 17.4738 19.6441L18.7707 21.3966V26.0214V30.6299H23.9582H29.1457V25.9565V21.2831L29.8693 19.3358L30.5791 17.4048L30.6201 11.1898C30.661 4.32569 30.6064 3.64415 29.842 2.34598C29.2822 1.37235 28.9137 1.01536 27.9854 0.496089C27.1799 0.041729 27.139 0.041729 24.436 0.041729H21.7057L20.7911 0.577225C19.1256 1.55085 18.3748 3.02752 18.2656 5.62386L18.1837 7.1979L17.4601 7.13299C16.8322 7.06808 16.6411 7.11676 16.1906 7.47376C15.8629 7.73339 15.5899 8.12284 15.4807 8.46361L15.3169 9.01534L15.0438 8.38248C14.6616 7.45753 14.02 7.05185 13.0917 7.13299L12.3545 7.21412V6.28918C12.3545 3.4332 11.5354 1.59953 9.78805 0.577225L8.87341 0.041729L6.41616 0.00927473C4.60052 -0.0231795 3.76779 0.0255019 3.24903 0.204ZM8.69594 1.25876C9.61058 1.56708 10.4706 2.39466 10.8938 3.36829C11.1941 4.09851 11.2897 4.5691 11.358 5.75368L11.4399 7.21412L10.5525 8.05793C9.52868 8.99911 9.28295 9.5346 9.39216 10.6218C9.48772 11.6279 10.0611 12.2932 10.8256 12.2932C11.8221 12.2932 12.3545 11.417 12.3545 9.77801C12.3545 8.72325 12.6548 8.23643 13.3101 8.23643C13.5422 8.23643 13.8425 8.38248 13.9927 8.56098C14.2521 8.86929 14.2657 9.09647 14.2657 12.2445C14.2657 16.3175 14.2657 16.3175 12.4228 18.849L11.1941 20.5528H10.5525L9.89726 20.5691V21.137C9.89726 21.6725 9.92457 21.705 10.3751 21.705H10.8529V25.5995V29.494H6.62093H2.38899V25.5995V21.705H5.59707H8.80515V21.137V20.5691H5.50151H2.18422L1.52896 18.7029L0.873689 16.8206L0.914644 10.4596C0.955598 4.24456 0.969249 4.08229 1.25593 3.4332C1.65182 2.54071 2.56646 1.63199 3.34459 1.3399C4.08177 1.08027 7.93146 1.01536 8.69594 1.25876ZM27.2209 1.35613C27.7533 1.53463 28.1355 1.82671 28.5997 2.39466C29.6645 3.64415 29.6918 3.87133 29.6918 10.8977V16.918L29.0365 18.7029L28.3949 20.4879L27.8215 20.5366C27.2482 20.5853 27.2345 20.6015 27.2345 21.1532C27.2345 21.6725 27.2618 21.705 27.7123 21.705H28.1901V25.5995V29.494H23.9582H19.7263V25.5995V21.705H22.9343H26.1424V21.137V20.5691L22.7705 20.5528H19.385L18.1564 18.849C16.3134 16.3175 16.3953 16.5772 16.3407 12.423C16.2998 9.04779 16.3134 8.88552 16.5728 8.5772C16.9414 8.13907 17.5967 8.13907 17.9516 8.56098C18.1564 8.80438 18.2246 9.09647 18.2246 9.77801C18.2246 11.417 18.757 12.2932 19.7536 12.2932C20.518 12.2932 21.0914 11.6279 21.187 10.6218C21.2962 9.55083 21.0505 8.99911 20.0266 8.05793L19.1393 7.23035L19.2075 5.72123C19.2621 4.42306 19.344 4.08229 19.6853 3.33584C20.1085 2.42712 21.0232 1.55085 21.8286 1.27499C22.5931 1.01536 26.4155 1.06404 27.2209 1.35613ZM11.2624 10.8328C10.9621 11.5143 10.3068 11.1249 10.3068 10.2486C10.3068 9.84292 10.416 9.61574 10.8256 9.24252L11.3307 8.7557L11.3716 9.63197C11.3989 10.1026 11.3443 10.6543 11.2624 10.8328ZM20.2723 10.2486C20.2723 10.8328 20.0676 11.1573 19.699 11.1573C19.3577 11.1573 19.1802 10.6543 19.1802 9.61574V8.69079L19.7263 9.21006C20.1631 9.61574 20.2723 9.82669 20.2723 10.2486Z" />
<path d="M3.41286 25.5997V28.196H6.59363H9.76076V25.5997V23.0034H6.59363H3.41286V25.5997ZM8.80516 25.5997V27.0601H6.59363H4.36845L4.40941 25.5997L4.45036 24.1393H6.63459H8.80516V25.5997Z" />
<path d="M20.8184 25.5997V28.196H23.9992H27.1663V25.5997V23.0034H23.9992H20.8184V25.5997ZM26.1424 25.5997V27.0601H23.9582H21.774V25.5997V24.1393H23.9582H26.1424V25.5997Z" />
</svg>
