<svg width="25" height="31" viewBox="0 0 25 31" xmlns="http://www.w3.org/2000/svg">
<path d="M11.009 0.522835C9.1084 1.22365 8.05979 2.81217 8.19087 4.72774C8.27279 5.86462 8.61687 6.62774 9.41971 7.37527C10.3373 8.2474 11.009 8.49658 12.5 8.49658C13.991 8.49658 14.6628 8.2474 15.5803 7.37527C16.4979 6.50315 16.76 5.86462 16.76 4.44741C16.76 3.55971 16.6781 3.04578 16.4651 2.64086C16.0719 1.9089 15.1707 1.03677 14.4006 0.694146C13.6797 0.351524 11.7136 0.258082 11.009 0.522835ZM13.9091 1.97119C14.5153 2.26709 15.1543 3.0302 15.3673 3.71545C15.5639 4.43184 15.5639 4.46299 15.3673 5.17938C15.0069 6.4097 13.8763 7.21954 12.5 7.21954C11.5333 7.21954 10.8288 6.90806 10.2226 6.23839C8.1581 3.90233 11.0254 0.58513 13.9091 1.97119Z"/>
<path d="M9.79654 10.2091C9.66546 10.2402 8.78069 10.3804 7.83038 10.5205C5.83146 10.8164 4.76646 11.2992 4.17661 12.1402C3.96361 12.4517 3.14438 14.1648 2.35792 15.9714C0.73584 19.6779 0.52284 20.5967 1.0963 21.4689C1.68615 22.341 2.34153 22.6213 3.57038 22.5279C4.16023 22.4967 4.81561 22.4033 5.045 22.341L5.45461 22.232L5.045 22.6681C4.81561 22.9017 3.93084 23.5869 3.07884 24.1943C1.14546 25.5648 0.358994 26.3279 0.113224 27.1066C-0.296391 28.4148 0.440917 30.05 1.75169 30.6885C2.39069 30.9844 2.68561 31 12.5 31C22.3144 31 22.6093 30.9844 23.2483 30.6885C24.5591 30.05 25.2964 28.4148 24.8868 27.091C24.641 26.3279 23.8709 25.5803 21.446 23.7894C20.4302 23.0263 19.6273 22.3722 19.6765 22.341C19.7256 22.2943 20.0369 22.3254 20.3974 22.4189C22.6093 23.0107 24.3133 21.9984 24.1659 20.1607C24.1003 19.3041 21.5607 13.2148 20.8234 12.1402C19.9386 10.8476 17.6448 10.2869 12.9915 10.1935C11.3695 10.1779 9.92761 10.1779 9.79654 10.2091ZM14.2368 11.5328C16.547 11.7509 18.8081 12.1558 19.2341 12.4205C19.5618 12.623 20.1025 13.7443 22.3472 18.9148C22.7732 19.8959 22.8387 20.223 22.724 20.5656C22.3963 21.4377 22.1833 21.4222 17.1368 20.2386L12.5 19.1484L7.86315 20.2386C2.83307 21.4222 2.53815 21.4377 2.30876 20.5812C2.14492 20.0205 2.11215 20.1451 3.83253 16.2205C4.78284 14.0558 5.50377 12.6074 5.73315 12.4517C6.09361 12.1869 8.33831 11.7664 10.5338 11.5484C12.4181 11.3615 12.3853 11.3615 14.2368 11.5328ZM15.2526 21.2197C17.4154 21.7025 17.5301 21.7492 17.7267 22.2008C18.0052 22.8082 19.6437 24.2721 21.6099 25.6738C22.4782 26.2967 23.2647 26.9664 23.363 27.1844C23.7071 27.9008 23.5924 28.4771 23.0025 29.1L22.4455 29.6762L15.9899 29.723C9.092 29.7697 8.51854 29.723 8.19084 29.0533C7.94507 28.5549 8.17446 27.9475 8.68238 27.7139C8.89538 27.6361 10.7468 27.2312 12.8113 26.8262C15.9408 26.2189 16.5962 26.0476 16.7928 25.7672C16.9894 25.4713 16.973 25.3935 16.7108 25.082L16.3995 24.7238L12.5655 25.4558C10.4519 25.8762 8.43661 26.3279 8.05977 26.4836C7.0603 26.8885 6.6343 27.6516 6.71623 28.8508L6.78177 29.7852L4.66815 29.723L2.55453 29.6762L1.99746 29.1C0.94884 27.9943 1.26015 27.1689 3.2263 25.8139C5.43823 24.3033 6.76538 23.1508 7.14223 22.4189L7.50269 21.7492L9.91123 21.173C11.2548 20.8459 12.4836 20.6279 12.6638 20.659C12.8441 20.6902 14.0074 20.9394 15.2526 21.2197Z"/>
<path d="M11.7955 12.514C11.3858 12.9345 10.8943 13.9779 10.6158 15.0525L10.4028 15.8312L8.27277 16.532C7.02753 16.9214 6.06084 17.3263 5.96253 17.482C5.73315 17.8402 6.01169 18.2919 6.50323 18.3542C6.94561 18.4165 11.3858 17.0304 11.5497 16.7812C11.6316 16.6722 11.8282 16.0648 12.0085 15.4263C12.1887 14.7878 12.4181 14.2738 12.5 14.2894C12.5983 14.305 12.8113 14.8189 12.9915 15.4575C13.1718 16.0804 13.3684 16.6722 13.4503 16.7812C13.6142 17.0304 18.0544 18.4165 18.4968 18.3542C18.9883 18.2919 19.2668 17.8402 19.0375 17.482C18.9392 17.3263 17.9725 16.9214 16.7272 16.532L14.5972 15.8312L14.3842 15.0525C13.9418 13.3083 13.1882 12.1558 12.5 12.1558C12.3034 12.1558 11.9921 12.3116 11.7955 12.514Z"/>
</svg>
