<svg width="24" height="29" viewBox="0 0 24 29" fill="none" xmlns="http://www.w3.org/2000/svg">
<path d="M10.3846 0.14483C8.5918 0.80834 7.60266 2.31229 7.7263 4.12589C7.80358 5.20225 8.12814 5.92473 8.88545 6.63248C9.75095 7.45818 10.3846 7.69409 11.7911 7.69409C13.1975 7.69409 13.8312 7.45818 14.6967 6.63248C15.5622 5.80678 15.8094 5.20225 15.8094 3.86048C15.8094 3.02004 15.7322 2.53346 15.5312 2.1501C15.1603 1.4571 14.3103 0.631404 13.5839 0.307022C12.9038 -0.0173612 11.0492 -0.105829 10.3846 0.14483ZM13.1202 1.51608C13.6921 1.79623 14.2948 2.51872 14.4957 3.16748C14.6812 3.84574 14.6812 3.87523 14.4957 4.55348C14.1557 5.71831 13.0893 6.48503 11.7911 6.48503C10.8792 6.48503 10.2146 6.19014 9.64276 5.55612C7.69539 3.34442 10.4001 0.203809 13.1202 1.51608Z" fill="#036E90"/>
<path d="M9.24091 9.31589C9.11726 9.34538 8.28268 9.47808 7.38627 9.61079C5.50072 9.89093 4.49612 10.348 3.93973 11.1442C3.73881 11.4391 2.96604 13.061 2.22418 14.7714C0.694105 18.2806 0.493186 19.1506 1.03412 19.9763C1.59052 20.802 2.20873 21.0674 3.36788 20.9789C3.92427 20.9494 4.54248 20.861 4.75886 20.802L5.14524 20.6988L4.75886 21.1116C4.54248 21.3328 3.7079 21.9815 2.90422 22.5566C1.08049 23.8541 0.338633 24.5766 0.106803 25.3138C-0.279581 26.5524 0.41591 28.1006 1.65234 28.7051C2.25509 28.9853 2.53329 29 11.791 29C21.0488 29 21.327 28.9853 21.9297 28.7051C23.1662 28.1006 23.8617 26.5524 23.4753 25.2991C23.2434 24.5766 22.517 23.8689 20.2297 22.1732C19.2714 21.4507 18.5141 20.8315 18.5605 20.802C18.6068 20.7577 18.9005 20.7872 19.2405 20.8757C21.327 21.436 22.9343 20.4776 22.7952 18.7377C22.7334 17.9268 20.3378 12.1616 19.6424 11.1442C18.8078 9.92042 16.644 9.38962 12.2547 9.30115C10.7246 9.2864 9.36455 9.2864 9.24091 9.31589ZM13.4293 10.5692C15.6085 10.7756 17.7413 11.159 18.1432 11.4096C18.4523 11.6013 18.9623 12.6629 21.0797 17.5582C21.4815 18.4871 21.5434 18.7967 21.4352 19.1211C21.1261 19.9468 20.9251 19.932 16.1649 18.8114L11.791 17.7793L7.41718 18.8114C2.67239 19.932 2.39419 19.9468 2.17782 19.1358C2.02326 18.605 1.99235 18.723 3.61516 15.0073C4.51157 12.9578 5.19161 11.5866 5.40798 11.4391C5.748 11.1885 7.86538 10.7904 9.9364 10.5839C11.7138 10.407 11.6829 10.407 13.4293 10.5692ZM14.3875 19.7404C16.4276 20.1974 16.5358 20.2417 16.7213 20.6693C16.984 21.2443 18.5296 22.6303 20.3842 23.9573C21.2033 24.5471 21.9452 25.1811 22.0379 25.3876C22.3625 26.0658 22.2543 26.6114 21.6979 27.2012L21.1724 27.7467L15.083 27.7909C8.57633 27.8352 8.03539 27.7909 7.72628 27.1569C7.49445 26.6851 7.71083 26.11 8.18994 25.8889C8.39086 25.8152 10.1373 25.4318 12.0847 25.0484C15.0367 24.4734 15.6549 24.3112 15.8403 24.0458C16.0258 23.7656 16.0103 23.6919 15.7631 23.397L15.4694 23.0579L11.8529 23.7509C9.85912 24.149 7.95811 24.5766 7.60264 24.7241C6.65987 25.1074 6.25803 25.8299 6.3353 26.9652L6.39713 27.8499L4.40339 27.7909L2.40965 27.7467L1.88417 27.2012C0.895025 26.1543 1.18868 25.3728 3.04332 24.09C5.12979 22.6598 6.38167 21.5687 6.73714 20.8757L7.07716 20.2417L9.34909 19.6961C10.6164 19.3865 11.7756 19.1801 11.9456 19.2096C12.1156 19.239 13.2129 19.475 14.3875 19.7404Z" fill="#036E90"/>
<path d="M11.1265 11.4981C10.7401 11.8962 10.2764 12.8841 10.0137 13.9015L9.81277 14.6387L7.80357 15.3022C6.62897 15.6709 5.7171 16.0542 5.62437 16.2017C5.408 16.5408 5.67074 16.9684 6.1344 17.0274C6.55169 17.0863 10.7401 15.7741 10.8946 15.5382C10.9719 15.4349 11.1574 14.8599 11.3274 14.2554C11.4974 13.6508 11.7138 13.1643 11.7911 13.179C11.8838 13.1938 12.0847 13.6803 12.2547 14.2849C12.4247 14.8747 12.6102 15.4349 12.6875 15.5382C12.842 15.7741 17.0304 17.0863 17.4477 17.0274C17.9114 16.9684 18.1741 16.5408 17.9577 16.2017C17.865 16.0542 16.9531 15.6709 15.7785 15.3022L13.7693 14.6387L13.5684 13.9015C13.1511 12.2501 12.4402 11.159 11.7911 11.159C11.6056 11.159 11.3119 11.3064 11.1265 11.4981Z" fill="#036E90"/>
</svg>
