<svg width="336" height="258" viewBox="0 0 336 258" fill="none" xmlns="http://www.w3.org/2000/svg">
<path fill-rule="evenodd" clip-rule="evenodd" d="M104.505 117.018C105.724 129.336 106.944 141.655 108.164 153.974C114.805 150.184 121.446 146.393 128.087 142.603V170.667V178.043C128.087 178.696 127.7 180.938 128.087 181.503C128.416 181.983 130.849 181.996 131.425 182.077C135.18 182.603 138.944 183.071 142.713 183.487C152.647 184.585 163.279 186.157 173.251 184.896C181.92 183.799 190.323 180.716 198.243 177.127C201.023 175.868 203.765 174.519 206.455 173.079C207.026 172.773 209.096 172.052 209.407 171.43C209.66 170.922 209.066 169.137 208.986 168.603C208.652 166.353 208.317 164.101 207.982 161.851L203.308 130.419L212.138 139.238C212.829 139.929 214.143 141.89 215.1 142.197C215.802 142.421 217.539 141.726 218.233 141.593C223.232 140.629 228.232 139.665 233.231 138.702C234.396 138.477 237.021 138.486 238.003 137.782C238.531 137.403 238.556 136.632 238.743 135.901C239.962 131.122 241.182 126.344 242.401 121.566C242.621 120.706 243.846 117.992 243.535 117.126C243.423 116.815 242.882 116.603 242.551 116.4C235.006 111.791 227.46 107.181 219.914 102.571C215.781 100.046 211.647 97.5206 207.514 94.9953C205.783 93.9374 203.656 92.0315 201.694 91.4398C200.476 91.0723 198.704 91.3476 197.444 91.3115C194.882 91.2384 192.322 91.1653 189.761 91.0922C189.36 91.0808 187.955 90.7949 187.618 91.0313C187.337 91.2278 187.453 91.502 187.361 91.9706C187.136 93.115 187.134 94.3492 187.023 95.5111C186.934 96.4435 187.111 98.1533 186.691 98.9972C186.423 99.5365 186.763 99.3217 186.4 99.5824C185.968 99.8927 184.588 99.7927 184.073 99.8524C181.564 100.144 179.054 100.436 176.544 100.727C173.561 101.074 170.544 101.724 167.546 101.425C163.001 100.971 158.101 100.993 153.639 100.036C152.479 99.7867 152.061 99.1332 151.167 98.2398C149.421 96.4959 147.692 94.7318 145.927 93.0062C145.062 92.1607 145.433 92.304 144.541 92.6249C143.423 93.0265 142.29 93.9963 141.278 94.6128C137.402 96.9743 133.526 99.3359 129.65 101.697L105.985 116.115C105.492 116.416 104.998 116.717 104.505 117.018Z" fill="#F2DFBF"/>
<path fill-rule="evenodd" clip-rule="evenodd" d="M330.846 118.549C325.968 137.073 316.157 157.271 296.391 163.175C291.586 164.611 286.911 165.694 281.919 165.148C281.444 165.096 281.047 165.162 280.595 165.171C279.786 165.186 280.485 165.477 279.577 165.197C278.869 164.978 278.206 164.431 277.469 164.19C275.507 163.548 273.416 163.424 271.423 162.905C266.525 161.631 261.477 160.057 256.732 158.3C254.497 157.472 252.443 156.32 250.341 155.211C248.204 154.085 245.94 153.385 243.779 152.352C242.072 151.535 239.146 150.471 237.946 148.939C236.665 147.305 238.437 143.826 238.943 142.089C240.664 136.179 242.715 130.355 244.008 124.327C248.476 129.506 254.677 132.714 261.097 134.782C264.58 135.905 268.163 136.716 271.786 137.224C275.075 137.685 278.624 138.243 281.921 137.588C284.41 137.094 287.534 135.95 289.312 134.05C289.946 133.371 290.707 132.128 290.352 131.142C289.901 129.891 288.586 130.48 287.874 129.547C287.255 128.734 287.352 126.832 287.154 125.842C286.805 124.089 286.325 122.385 285.739 120.698C284.602 117.423 283.185 114.14 282.845 110.655C282.55 107.631 283.238 104.772 284.746 102.148C285.459 100.908 287.248 97.5335 288.995 97.6735C290.913 97.8274 288.327 105.913 288.242 107.562C287.907 114.101 288.784 121.068 292.138 126.798C293.422 128.993 295.28 131.548 298.022 131.82C300.927 132.107 303.269 129.821 304.652 127.509C308.025 121.866 306.325 114.124 304.616 108.209C302.52 100.954 297.051 95.9525 293.592 89.4361C298.756 89.9554 301.521 93.2364 304.171 97.3992C307.089 101.982 309.36 107.485 310.48 112.817C311.046 115.511 310.655 118.217 310.659 120.937C310.66 121.841 310.66 125.176 312.133 125.044C313.707 124.904 314.248 121.143 314.479 119.996C315.01 117.365 315.584 114.733 316.045 112.088C316.861 107.409 317.224 102.617 318.201 97.971C318.366 97.1856 318.694 95.0063 319.87 95.5947C320.776 96.0477 320.631 99.4182 320.664 100.202C320.745 102.132 320.86 104.062 320.875 105.995C320.898 108.859 320.328 111.824 320.608 114.671C320.79 116.531 321.788 118.586 323.026 116.078C324.253 113.59 324.503 110.487 325.187 107.812C325.906 105.003 326.648 102.153 328.173 99.6579C328.596 98.9657 329.051 97.8668 329.991 98.1924C330.675 98.4293 331.179 100.049 331.39 100.621C332.343 103.204 332.181 106.077 332.121 108.781C332.048 112.095 331.692 115.336 330.846 118.549ZM235.724 123.356C235.463 123.272 234.356 123.167 234.081 123.143C233.759 123.115 234.125 122.521 233.346 122.69C233.496 123.063 233.763 123.312 234.147 123.437C232.976 123.833 232.112 122.854 231.311 122.728C230.545 122.608 230.512 122.728 229.756 123.537C228.936 122.538 229.09 123.161 228.416 123.162C228.171 123.162 228.161 123.533 227.762 123.488C227.413 123.449 227.377 122.921 227.171 122.859C226.053 122.52 224.903 124.223 223.635 122.746C223.327 124.283 219.808 122.358 218.453 122.628C217.034 122.91 217.646 123.419 216.499 122.549C215.406 121.72 215.711 122.271 214.439 122.949C214.469 122.934 213.721 123.439 213.791 123.447C212.911 123.344 212.961 122.433 211.846 122.482C210.666 122.533 210.162 123.458 209.082 122.32C208.847 123.172 208.799 122.805 208.246 123.02C207.941 123.092 207.675 123.012 207.447 122.78C207.378 123.015 207.226 123.158 206.99 123.211C206.388 123.265 205.256 123.349 204.709 123.059C203.888 122.623 204.548 122.456 203.978 121.966C203.723 123.317 203.163 123.03 201.983 123.156C201.083 123.252 200.885 122.976 200.025 122.842C199.178 122.709 198.084 123.038 197.257 123.178C196.916 123.236 196.46 123.474 196.113 123.391C195.8 123.315 195.666 123.072 195.479 123.009C195.252 122.932 195.3 122.734 194.908 122.638C194.638 122.572 194.154 122.825 193.883 122.869C191.958 123.182 190.108 123.185 188.27 122.427C189.176 124.018 186.156 123.159 185.617 122.501C184.944 123.555 184.13 122.811 182.774 122.893C181.468 122.972 179.503 123.372 178.974 121.745C178.87 122.076 178.129 123.036 177.834 123.182C176.977 123.607 176.875 122.979 176.079 122.723C174.996 122.375 175.222 123.036 174.55 123.17C173.416 123.397 172.803 122.598 171.8 122.174C171.758 122.834 171.736 123.24 171.166 123.651C170.66 121.81 168.857 123.802 169.166 121.341C168.48 121.788 167.514 122.132 167.319 123.036C168.466 122.72 167.441 123.47 167.393 123.495C167.242 123.574 166.729 122.855 166.61 122.754C166.578 123.093 166.545 123.432 166.513 123.772C166.056 123.543 165.627 123.134 165.256 122.929C164.921 122.744 165.4 122.359 164.835 122.333C164.537 122.319 164.227 122.964 163.914 123.019C163.437 123.102 163.666 122.417 163.466 122.44C163.161 122.475 162.665 122.921 162.435 122.912C161.679 122.884 162.191 122.532 161.614 122.371C160.584 122.083 160.65 122.756 159.91 122.999C158.216 123.556 158.386 120.996 156.663 122.703C156.25 123.112 155.985 123.743 155.42 123.707C154.25 123.634 154.661 122.247 154.898 121.568C155.144 121.689 150.624 124.011 150.66 123.92C150.689 123.363 151.399 122.934 150.764 122.439C150.245 123.554 149.698 123.574 148.5 123.781C147.918 123.882 147.803 124.017 147.18 123.775C146.783 123.621 146.517 122.988 146.122 122.953C146.175 122.958 145.451 123.509 145.34 123.559C144.686 123.853 144.273 123.519 143.637 123.64C143.096 123.744 142.882 124.204 142.343 124.078C141.624 123.91 142.047 123.051 141.057 123.291C140.719 123.373 140.516 124.025 139.982 124.159C139.152 124.37 138.133 123.977 137.256 124.182C136.559 124.345 136.041 124.414 135.432 124.447C134.94 124.475 135.142 124.092 134.236 124.544L133.851 123.575C133.398 123.983 132.944 124.391 132.49 124.799C132.404 124.434 132.35 124.063 132.326 123.688C131.65 124.366 130.798 124.482 129.888 124.543C128.903 124.609 128.169 124.823 127.211 125.004C126.908 125.06 126.127 125.151 125.878 125.045C125.915 125.061 125.412 124.852 125.564 124.891C125.498 124.758 125.438 124.623 125.382 124.486C125.297 124.103 125.022 124.086 124.558 124.435C124.317 124.398 123.851 124.083 123.611 124.161C122.993 124.361 123.077 124.841 122.461 124.77C122.062 124.724 121.858 124.134 121.441 124.093C120.805 124.032 120.253 124.745 119.679 124.901C121.423 124.427 117.416 124.795 118.662 124.827C117.845 124.806 116.997 124.765 116.242 125.132C115.825 124.846 116.331 124.273 115.91 124.037C115.528 123.823 115.498 124.388 115.454 124.401C115.695 124.332 115.574 124.813 115.333 124.899C114.581 125.165 113.98 124.488 113.941 123.815C113.302 124.777 113.123 124.39 112.183 124.45C111.257 124.508 110.458 124.994 109.531 124.985C107.697 124.968 106.453 124.331 105.841 122.693C107.795 122.931 109.761 121.675 111.671 121.971C112.299 122.068 112.691 122.54 113.241 122.456C113.919 122.353 114.392 121.614 115.261 121.534C117.177 121.359 119.066 121.529 120.996 121.236C123.301 120.884 125.706 120.676 128.033 120.847C129.832 120.98 131.288 120.292 133.111 120.16C135.469 119.988 137.846 119.957 140.208 119.834C142.635 119.706 145.246 119.319 147.666 119.443C148.422 119.482 149.072 119.556 149.822 119.511C150.139 119.491 150.439 119.276 150.772 119.308C151.205 119.35 151.391 119.794 151.841 119.778C152.605 119.752 153.421 119.123 154.329 119.106C155.822 119.078 157.309 119.081 158.805 118.996C160.123 118.921 161.535 118.613 162.847 118.63C163.772 118.641 164.001 119.43 164.54 119.511C165.51 119.657 170.415 116.866 170.839 119.371C173.392 117.623 176.817 119.104 179.659 118.775C183.311 118.353 187.029 118.729 190.706 118.579C194.446 118.426 198.295 118.568 202.021 118.92C203.564 119.067 205.055 119.204 206.603 119.115C207.293 119.075 208.091 118.899 208.781 119.058C208.948 119.097 210.228 119.99 210.069 120.016C210.768 119.388 210.295 119.296 211.524 119.264C212.472 119.239 213.369 119.444 214.311 119.5C216.003 119.6 217.707 119.366 219.395 119.417C220.805 119.46 222.183 119.668 223.599 119.679C225.127 119.69 226.93 119.733 228.035 120.964C227.918 120.578 227.802 120.191 227.685 119.804C229.39 119.938 231.074 120.546 232.798 120.262C232.362 120.679 231.919 121.021 231.753 121.633C232.682 121.515 233.311 120.867 234.29 120.861C235.111 120.856 235.283 121.269 236.15 120.736C236.257 121.389 236.364 122.041 236.47 122.694C237.672 122.411 236.884 121.515 236.971 120.707C237.948 121 238.775 120.663 238.39 122.069C238.093 123.152 236.741 123.686 235.724 123.356ZM234.035 135.424C233.616 136.601 229.992 135.928 229.135 135.804C228.028 135.643 226.761 135.389 225.741 135.263C225.619 135.1 225.472 134.961 225.302 134.847C225.173 135.026 225.011 135.153 224.815 135.228C224.347 135.33 224.345 135.814 223.73 135.707C223.701 136.422 224.198 136.015 224.579 136.275C223.62 136.918 224.058 136.178 223.52 136.19C223.387 136 223.201 135.926 222.963 135.967C222.66 136.046 222.38 136.175 222.125 136.357C221.885 136.61 221.68 136.623 221.508 136.396C221.345 136.231 221.145 136.129 220.909 136.091C219.964 136.245 219.7 136.664 218.636 136.595C217.115 136.497 215.471 136.898 213.974 136.687C213.047 136.556 211.498 135.099 211.076 136.52C210.435 135.466 209.414 134.75 208.8 133.674C211.66 133.509 214.518 133.312 217.38 133.208C219.886 133.118 222.627 133.4 224.969 133.282C227.163 133.171 229.485 132.929 231.725 132.728C234.099 132.516 234.885 133.037 234.035 135.424ZM159.435 135.598C160.473 135.885 161.462 135.233 162.469 135.439C162.802 135.507 163.491 136.114 163.643 136.125C163.92 136.148 164.735 135.552 165.084 135.473C167.296 134.969 169.976 135.023 172.187 135.332C173.359 135.496 173.539 134.959 174.561 134.699C175.625 134.428 177.135 134.637 178.255 134.562C180.888 134.386 183.521 134.511 186.137 134.318C188.822 134.121 191.494 134.014 194.181 133.875C196.011 133.781 200.408 132.737 201.925 134.096C203.176 135.216 201.565 137.161 200.313 137.605C199.378 137.937 198.93 137.238 198.235 137.305C197.444 137.381 197.72 138.316 197.014 137.449C196.577 138.311 193.827 137.943 193.039 138C191.322 138.124 189.869 138.469 188.7 136.867C188.78 137.329 188.859 137.791 188.938 138.253C187.388 137.424 185.725 137.69 184.379 137.979C183.713 138.122 181.668 139.11 180.947 138.684C180.45 138.391 181.325 137.889 180.487 137.639C180.048 137.508 179.29 138.237 178.754 138.2C177.269 138.098 177.69 137.1 176.232 138.371C175.738 137.943 175.573 137.217 175.638 136.594C174.579 137.498 174.667 139.004 172.773 138.728C172.067 138.626 171.938 137.905 171.57 137.773C170.786 137.489 170.697 137.999 170.018 138.402C169.761 138.553 169.449 138.798 169.147 138.828C168.527 138.89 168.428 138.605 168.343 138.615C167.931 138.66 167.411 138.87 166.921 138.72C166.482 138.585 166.354 137.81 165.579 137.991C164.839 138.165 164.833 138.668 164.967 139.422C164.236 139.346 163.795 138.939 163.248 138.498C162.696 139.786 161.535 138.719 160.892 139.806C160.055 138.806 159.518 139.081 158.48 138.105C158.531 138.512 158.582 138.92 158.633 139.327C157.822 139.171 157.462 138.599 156.771 139.355C156.1 138.105 154.065 139.887 153.02 138.679C152.555 140.208 149.473 139.843 148.171 139.869C147.018 139.893 146.164 139.798 145.037 140.066C144.041 140.303 142.661 140.548 141.725 140.44C141.113 140.369 140.444 140.257 139.681 140.34C138.582 140.459 137.633 141.028 136.494 140.759C134.779 140.354 133.728 138.101 135.638 137.112C136.945 136.435 139.299 136.685 140.737 136.56C143.121 136.353 145.792 135.919 148.179 136.116C150.04 136.271 151.737 135.826 153.637 135.639C155.067 135.497 157.41 135.243 158.343 136.661C158.701 136.247 158.664 135.384 159.435 135.598ZM133.343 155.002C133.087 153.727 143.984 153.025 145.065 152.941C147.336 152.766 149.613 152.641 151.889 152.583C153.76 152.536 155.506 152.893 157.378 152.606C159.126 152.338 161.235 151.788 162.756 153.025C162.98 151.333 169.539 152.157 170.787 152.162C176.219 152.182 181.418 152.194 186.672 151.858C189.675 151.666 192.864 151.407 195.867 151.557C197.222 151.625 198.313 151.986 199.66 151.673C200.538 151.468 201.485 151.043 202.326 151.644C203.309 152.348 203.729 154.738 203.052 155.735C202.559 156.462 202.122 156.382 201.333 156.256C200.122 156.063 199.221 155.783 197.985 156.275C198.186 156.195 197.157 156.425 197.243 156.418C195.843 156.523 193.923 157.501 192.717 156.374C193.2 156.458 193.902 155.595 193.293 155.524C192.835 155.471 192.545 155.962 192.188 156.126C190.967 156.688 190.342 156.512 189.612 155.333C188.142 156.607 187.983 156.254 187.337 154.686C186.84 155.069 186.734 155.975 186.342 156.272C186.284 156.317 186.525 156.867 186.242 156.844C185.98 156.823 185.894 156.393 185.693 156.359C185.564 156.337 185.497 155.96 185.374 155.938C185.24 155.913 185.103 156.153 184.952 156.146C184.547 156.127 183.391 156.988 183.806 155.78C183.193 156.56 182.93 156.063 182.709 155.354C182.002 155.891 181.295 156.429 180.588 156.966C180.259 156.052 179.693 156.301 178.981 156.62C179.196 155.985 179.061 155.385 178.523 155.826C178.212 156.082 178.002 156.893 177.683 157.238C176.393 155.93 175.923 156.289 174.14 156.459C173.459 156.524 172.613 156.649 172.005 156.238C171.47 155.877 171.168 154.55 170.253 155.622C170.457 155.383 170.138 157.214 170.081 157.505C169.678 157.233 169.336 156.899 169.054 156.503C168.527 157.544 167.146 156.61 166.014 156.822C164.232 157.158 162.394 157.722 160.82 156.396C160.709 156.824 159.419 157.369 159.418 157.386C159.494 156.628 159.973 156.894 158.996 156.75C158.816 156.724 158.612 157.048 158.442 157.083C157.86 157.203 157.179 157.089 156.593 157.072C154.151 157.002 151.916 157.543 149.505 157.739C148.692 157.805 147.728 157.935 146.965 157.629C146.179 157.312 146.2 156.954 145.405 157.157C145.657 157.093 144.908 157.88 144.949 157.85C144.842 157.928 144.396 157.544 144.237 157.573C144.191 157.741 144.145 157.908 144.099 158.076C143.907 158.052 143.715 158.029 143.524 158.005C142.999 158.075 142.526 157.545 142.034 157.527C142.124 157.53 140.705 158.059 140.769 158.091C139.778 157.596 140.062 157.74 138.805 158.041C137.616 158.325 136.433 158.259 135.213 158.436C131.666 158.952 133.78 157.174 133.343 155.002ZM130.21 172.741C129.543 171.794 131.318 171.467 131.885 171.384C132.817 171.246 134.054 171.52 134.675 171.371C135.621 171.146 136.534 170.609 137.599 170.464C138.943 170.28 140.298 170.25 141.648 170.135C142.097 170.096 142.654 169.941 143.091 169.967C143.743 170.007 144.013 170.351 144.539 170.354C145.435 170.358 146.54 169.792 147.458 169.689C148.634 169.555 149.821 169.493 151.003 169.434C153.492 169.311 155.955 169.362 158.443 169.359C159.578 169.357 162.6 168.18 163.166 169.5C163.952 168.5 165.97 168.636 167.095 168.607C169.076 168.556 171.037 168.365 173.016 168.273C174.711 168.194 176.606 168.557 178.27 168.303C179.187 168.163 179.491 167.869 180.532 168.001C181.305 168.099 182.483 167.691 183.146 167.872C183.112 167.862 183.974 168.397 183.705 168.414C184.001 168.395 183.984 168.602 184.311 168.509C184.74 168.388 184.543 167.849 185.432 167.657C186.819 167.358 188.668 167.704 190.109 167.627C191.507 167.553 192.903 167.521 194.302 167.527C194.947 167.53 195.743 167.376 196.37 167.502C196.677 167.564 197.33 167.964 197.59 167.924C198.327 167.809 198.703 167.297 199.7 167.328C200.83 167.364 201.847 167.349 202.971 167.262C204.059 167.179 204.233 167.024 204.773 167.929C205.307 168.828 205.455 169.997 204.471 170.608C205.11 170.566 205.896 171.422 205.143 171.895C204.678 172.188 203.744 171.527 203.187 171.575C202.501 171.634 201.962 171.997 201.215 172.019C200.43 172.043 199.632 172.241 198.858 172.256C198.051 172.272 197.441 171.912 196.676 172.065C196.002 172.2 195.931 172.752 195.121 172.268C194.718 172.026 194.65 171.133 194.1 171.125C193.363 171.114 193.657 172.066 193.234 172.507C193.12 171.146 192.069 173.398 191.652 171.745C191.267 172.294 189.841 173.062 189.151 172.621C188.521 172.219 188.73 171.31 188.468 170.655C188.032 171.832 186.86 173.053 186.966 170.91C186.397 171.611 184.86 171.5 185.245 172.726C184.782 172.717 184.672 172.055 184.282 172.005C183.946 171.962 183.678 172.221 183.627 172.217C183.811 172.232 183.075 172.477 183.064 172.48C183.562 172.378 181.626 172.206 181.956 172.209C181.507 172.205 180.957 172.573 180.432 172.572C179.954 172.57 179.478 172.382 179.006 172.328C177.781 172.188 178.036 172.457 177.268 172.842C176.983 172.984 176.911 173.226 176.507 173.196C176.209 173.173 176.097 172.784 176.063 172.78C175.644 172.738 175.953 172.597 175.302 172.662C175.227 172.791 175.153 172.919 175.078 173.048C174.843 173.349 174.537 173.424 174.163 173.274C173.199 173.481 170.001 174.377 170.315 172.717C169.825 172.957 169.335 173.196 168.845 173.436C168.635 172.098 165.973 173.872 165.378 173.962C164.616 174.076 164.545 173.784 163.824 173.628C163.694 173.6 163.433 174.029 163.129 173.967C162.337 173.808 162.196 173.729 162.061 172.87C161.496 173.924 161.028 173.453 160.004 173.626C159.778 173.665 159.633 174.11 159.308 174.033C159.074 173.978 159.068 173.55 158.906 173.495C158.761 173.445 158.783 173.107 158.568 173.059C158.323 173.003 157.486 173.69 157.246 173.796C156.704 174.035 155.814 174.43 155.286 174.311C154.632 174.165 154.923 173.681 153.999 173.735C152.542 173.821 151.934 175.061 151.027 173.106C150.618 173.889 150.67 174.102 150.013 174.36C149.527 174.551 148.297 174.352 147.658 174.328C144.927 174.227 142.242 175.158 139.534 174.914C138.343 174.807 137.34 174.569 136.138 174.764C134.876 174.969 133.642 175.27 132.361 175.391C131.71 175.453 130.349 175.64 130.03 174.807C129.749 174.074 130.798 173.574 130.21 172.741ZM135.566 202.793C132.024 205.163 129.09 208.399 125.838 211.14C122.577 213.888 119.989 216.942 117.057 219.985C114.345 222.797 111.855 225.459 108.577 227.584C106.503 228.929 104.652 230.585 102.522 231.853C100.926 232.803 98.5081 234.052 99.2868 231.147C100.085 228.169 101.558 225.16 102.837 222.379C104.656 218.426 106.489 214.51 108.456 210.632C109.196 209.175 109.61 207.725 110.783 206.564C112.059 205.301 112.952 203.652 114.35 202.458C120.228 197.438 129.088 201.316 135.566 202.793ZM146.677 204.495C145.07 205.337 143.272 205.546 141.569 206.103C140.118 206.577 138.769 207.421 137.208 207.484C138.629 206.417 139.849 204.967 141.451 204.158C143.253 203.246 144.888 203.91 146.677 204.495ZM217.201 211.515C211.291 209.521 205.788 206.581 200.032 204.216C199.038 203.808 191.267 201.248 191.424 200.029C196.87 199.031 202.479 197.319 207.938 199.186C212.904 200.885 216.944 204.959 220.788 208.369C221.791 209.258 227.994 213.31 227.439 214.601C227.055 215.495 224.066 215.251 223.36 215.068C222.448 214.831 221.923 214.277 221.208 213.669C220.012 212.653 218.689 212.017 217.201 211.515ZM206.29 178.191C207.188 177.365 207.725 176.111 208.583 175.349C209.685 174.369 211.463 174.846 212.667 175.355C216.281 176.883 219.37 179.451 222.961 181.044C226.941 182.811 230.387 185.171 233.977 187.603C237.259 189.827 240.807 191.667 244.156 193.789C247.57 195.952 251.391 197.358 254.85 199.443C258.372 201.566 261.879 203.698 265.263 206.037C271.297 210.209 277.58 214.493 282.044 220.424C284.339 223.473 286.486 226.931 288.17 230.354C289.701 233.466 291.361 237.786 289.378 241.023C287.473 244.132 284.226 246.581 281.478 248.901C280.437 249.779 279.447 250.846 278.099 251.227C276.458 251.69 274.544 251.562 272.856 251.699C263.834 252.431 255.43 251.74 246.539 250.126C237.966 248.57 229.357 247.699 220.719 246.617C215.845 246.007 210.973 245.297 206.166 244.28C204.111 243.846 202.02 243.345 200.009 242.753C198.253 242.237 196.776 241.099 194.971 240.648C187.308 238.734 178.54 238.002 170.954 234.783C177.667 231.992 184.802 230.306 191.682 227.987C198.924 225.547 205.997 223.499 213.63 222.806C217.558 222.449 221.073 221.445 224.851 220.395C228.452 219.395 232.211 219.088 235.909 218.639C237.554 218.44 242.248 218.739 242.793 216.588C243.604 213.387 238.992 213.017 237.026 213.304C234.237 213.711 231.938 214.407 229.803 212.119C227.624 209.781 225.506 207.389 223.287 205.081C219.173 200.803 214.932 195.855 209.117 193.935C202.021 191.593 193.794 193.816 186.714 195.148C179.237 196.554 171.772 197.901 164.434 199.945C161.396 200.792 157.477 202.657 154.324 202.357C151.216 202.062 147.696 201.553 144.692 200.656C143.333 200.251 142.216 199.499 141 198.799C139.419 197.887 137.687 197.303 136.009 196.594C132.615 195.162 129.307 193.843 125.647 193.279C122.564 192.805 119.29 192.524 116.302 193.605C113.371 194.665 110.774 196.825 108.729 199.132C106.508 201.638 104.672 204.446 102.851 207.246C101.977 208.59 100.91 209.763 100.005 211.076C99.2449 212.18 98.8011 213.405 97.9969 214.478C96.197 216.877 94.975 219.946 93.8843 222.737C92.6724 225.837 91.3261 229.523 91.6154 232.895C91.7247 234.17 91.8389 235.858 92.3319 237.04C92.9589 238.543 93.853 238.505 95.1416 239.072C97.3556 240.046 97.9766 242.738 100.838 242.213C103.521 241.721 105.849 239.509 107.807 237.746C110.359 235.449 112.801 233.026 115.243 230.612C117.749 228.135 120.219 225.388 122.212 222.473C122.997 221.326 123.608 220.03 124.536 218.986C125.717 217.655 127.043 217.495 128.647 216.965C142.671 212.331 156.762 207.86 171.224 204.8C174.689 204.067 178.182 203.121 181.585 202.145C185.195 201.11 187.065 202.204 190.044 204.174C196.268 208.29 203.625 211.189 210.556 213.875C212.738 214.721 216.212 214.774 217.918 216.442C207.806 217.984 198.17 220.951 188.416 223.905C183.608 225.361 178.744 226.624 173.916 228.016C169.088 229.41 164.443 231.215 159.68 232.786C154.941 234.349 149.932 234.987 145.146 236.429C140.261 237.901 135.396 238.913 130.381 239.808C125.318 240.712 120.29 241.754 115.209 242.563C112.883 242.934 110.558 243.318 108.257 243.827C106.006 244.326 103.831 245.52 101.569 245.797C91.4663 247.033 81.5618 249.788 71.4985 251.345C63.9844 252.508 50.9121 254.13 46.0395 246.589C41.1397 239.006 47.151 230.161 52.5145 224.739C55.8477 221.369 59.5933 218.404 63.5231 215.765C67.7288 212.942 71.7752 209.893 75.9817 207.073C85.5013 200.693 95.824 195.489 106.051 190.362C110.961 187.901 115.704 185.262 120.479 182.561C122.849 181.221 124.161 183.384 126.034 184.854C127.508 186.01 130.214 188.861 132.276 187.543C132.355 188.018 132.435 188.492 132.514 188.967C133.118 188.692 133.722 188.416 134.326 188.141C134.731 189.205 134.684 189.866 135.817 190.425C136.513 190.768 137.998 191.181 138.662 190.577C138.797 190.997 138.932 191.417 139.068 191.837C139.648 191.793 139.76 190.133 139.869 189.744C140.863 191.196 142.238 192.41 143.985 192.82C143.993 192.725 143.701 191.533 143.713 191.525C144.266 191.187 144.963 192.636 145.256 192.947C146.228 193.975 146.808 193.816 147.881 192.985C147.959 193.07 148.322 194.018 148.375 194.001C148.608 193.928 149.048 193.087 149.097 193.011C149.03 194.116 151.163 194.339 151.916 194.101C151.747 193.777 151.578 193.454 151.41 193.13C154.034 192.78 155.064 195.568 157.583 195.426C159.445 195.321 157.951 194.914 159.005 194.117C159.925 193.42 160.09 194.944 160.18 194.896C160.355 194.712 160.492 194.501 160.588 194.262C160.929 195.567 163.641 196.739 163.361 194.592C164.428 195.019 165.186 195.727 166.367 195.877C167.802 196.059 169.335 195.754 170.767 195.635C173.853 195.378 176.761 194.749 179.543 193.335C181.192 192.497 182.947 191.736 184.497 190.725C185.794 189.878 188.255 187.309 189.982 188.415C189.54 187.11 191.622 188.32 191.689 186.638C192.023 186.891 192.358 187.143 192.692 187.395C192.893 186.955 192.837 186.262 193.105 185.879C193.474 185.352 193.654 185.662 193.969 185.366C194.321 185.035 194.628 184.147 195.05 183.894C195.485 183.634 195.996 183.944 196.464 183.717C197.176 183.371 200.241 179.991 199.722 182.887C201.04 182.439 200.024 182.03 200.188 181.152C200.519 179.392 201.323 180.658 202.125 180.812C203.437 181.063 203.41 179.978 204.142 179.19C204.81 178.469 206.067 178.147 205.634 176.896C206.128 177.163 206.233 177.684 206.29 178.191ZM127.187 140.604C126.153 141.756 125.379 141.264 124.23 141.095C124.106 140.683 123.896 140.626 123.599 140.923C123.259 141.119 122.893 141.248 122.5 141.31C121.558 141.542 120.579 141.443 119.657 141.795C119.683 141.486 120.008 140.937 119.8 140.624C118.83 141.294 118.229 141.721 117.039 141.734C116.074 141.744 114.38 141.007 113.579 141.888C113.555 141.545 113.53 141.202 113.505 140.859C113.113 141.055 112.772 141.316 112.481 141.644C112.426 141.136 112.396 140.752 112.06 140.341C111.423 141.652 110.725 141.683 109.486 141.182C109.66 141.252 108.247 140.424 108.301 140.653C107.854 138.771 114.906 138.926 115.646 138.852C117.495 138.665 119.344 138.557 121.195 138.386C122.951 138.224 124.262 137.951 125.477 139.416C124.935 137.299 130.059 137.404 127.187 140.604ZM46.3362 107.779C46.5304 110.979 47.2424 114.38 45.9985 117.46C44.9984 119.936 43.0034 122.732 40.8544 124.347C36.4541 127.655 32.7243 123.607 32.1118 119.159C31.4734 114.519 32.7389 108.85 36.7333 105.989C39.12 104.279 41.4311 104.398 44.1791 104.96C44.8244 105.092 45.8721 105.041 46.2411 105.683C46.3277 105.833 46.25 107.776 46.3362 107.779ZM104.78 150.414C104.02 150.798 103.224 151.022 102.554 151.544C102.321 151.726 102.242 152.139 101.995 152.292C101.545 152.57 100.903 152.385 100.434 152.615C99.659 152.994 99.1031 153.536 98.1814 153.885C96.8127 154.404 95.6126 155.116 94.3191 155.79C92.1636 156.914 89.8505 157.879 87.5971 158.795C86.4596 159.257 83.3137 160.157 83.4227 161.822C83.1683 161.891 82.9082 161.334 82.377 161.379C81.6476 161.439 80.684 162.283 79.9269 162.491C78.5107 162.879 77.4142 162.913 77.4142 164.719C76.9635 164.412 76.8489 163.663 76.2491 163.563C75.5741 163.452 75.29 164.18 74.75 164.407C74.114 164.674 73.3231 164.418 72.6932 164.702C72.4177 164.993 72.1117 165.247 71.7748 165.464C71.4322 165.504 71.0913 165.494 70.7519 165.433C69.4149 165.716 68.1844 166.219 66.8441 166.481C65.538 166.736 64.6435 166.829 65.1925 168.373C63.7954 168.647 63.454 167.164 61.8776 167.706C59.9453 168.371 58.1393 168.85 56.122 169.255C55.0934 169.462 54.0185 169.924 52.9822 170.032C52.243 170.109 51.553 169.845 50.8251 169.927C49.9478 170.025 49.2427 170.432 48.3348 170.447C47.4737 170.462 46.5695 170.307 45.7238 170.155C45.8432 170.496 45.9928 170.823 46.1724 171.136C45.5876 171.013 45.3178 170.31 44.822 170.206C44.3018 170.097 43.8357 170.634 43.4025 170.515C43.218 170.464 43.3407 169.895 43.0107 169.786C42.71 169.688 42.5832 169.804 42.2849 169.757C42.1854 169.742 40.9378 169.674 40.739 169.779C40.3916 169.964 40.7431 170.309 40.674 170.36C39.5008 171.229 39.4865 170.76 38.9635 169.853C38.1954 168.521 37.2693 169.361 35.8734 169.128C34.3177 168.869 33.092 169.555 31.5608 169.458C29.9092 169.352 27.9683 168.116 26.5082 167.394C23.355 165.836 20.2803 164.36 17.6323 161.999C12.4557 157.384 8.24433 151.709 5.76131 145.211C3.09338 138.231 2.58783 130.951 2.802 123.545C2.93082 119.091 3.28722 114.64 3.98905 110.239C4.47225 107.211 4.57344 101.83 7.98627 100.451C8.5731 107.541 6.7216 114.765 7.88915 121.808C8.24067 123.93 9.09815 126.757 10.7209 128.328C13.1234 130.654 13.6854 127.292 13.9029 125.434C14.3072 121.985 15.0586 118.555 15.5906 115.122C16.1221 111.691 16.4976 108.221 17.2369 104.826C17.5063 103.588 19.6797 94.5216 21.2747 94.9509C20.952 101.546 20.095 108.028 20.0612 114.648C20.0478 117.303 19.8101 120.107 20.1933 122.745C20.3904 124.102 21.6262 128.085 23.7516 127.753C25.7186 127.446 23.5562 124.64 23.3725 123.558C22.886 120.694 23.5062 117.131 23.9597 114.289C24.818 108.909 26.7329 103.4 29.8629 98.9046C32.6662 94.8793 36.9824 91.0473 42.1821 91.757C44.4038 92.0606 46.1371 92.6125 47.2534 94.6416C48.1292 96.2341 51.5794 98.0434 49.58 100.037C47.7598 101.852 44.8159 100.399 42.7925 99.9668C40.3152 99.4369 37.6602 100.074 35.5885 101.526C32.0338 104.017 30.008 108.47 29.3468 112.646C28.4556 118.277 30.8378 133.017 39.6121 129.714C45.4409 127.519 49.8311 119.624 49.3418 113.581C49.1455 111.161 48.1999 106.568 51.5465 105.915C55.8339 105.078 56.4394 109.806 56.0054 112.877C55.3742 117.346 53.0131 121.501 50.3119 125.034C47.9577 128.113 45.2194 130.038 42.3865 132.581C41.5477 133.334 39.4085 135.027 39.7678 136.427C40.1615 137.962 43.5236 138.398 44.8699 138.651C51.5298 139.898 59.0403 138.75 65.6888 137.88C79.3535 136.09 92.8386 131.682 104.044 123.577C104.496 128.592 105.067 133.59 105.277 138.622C105.379 141.066 105.405 143.544 105.684 145.974C105.856 147.468 106.477 149.556 104.78 150.414ZM66.8896 167.887C66.3532 168.168 66.9331 166.47 66.784 167.032C67.5854 167.319 67.6207 167.605 66.8896 167.887ZM123.575 107.2C124.427 106.261 126.753 104.028 127.492 106.147C127.766 105.244 127.802 103.906 128.863 105.126C129.285 103.627 133.943 103.767 135.097 103.701C138.792 103.49 142.501 103.377 146.183 103.01C153.748 102.256 161.444 102.645 169.037 102.62C170.681 102.615 172.321 102.525 173.953 102.764C175.528 102.994 177.183 103.64 178.789 103.404C180.216 103.194 181.152 102.8 182.621 102.969C184.379 103.17 186.085 103.314 187.859 103.307C195.703 103.279 203.544 103.597 211.39 103.609C212.919 103.611 214.751 103.312 216.186 103.962C216.717 104.203 217.298 105.004 217.704 105.092C218.169 105.193 217.893 104.467 218.515 104.795C219.35 105.233 218.704 106.583 218.153 106.797C218.483 106.669 217.557 106.543 217.65 106.538C217.211 106.561 216.836 106.898 216.364 106.877C215.646 106.846 215.044 106.407 214.465 106.022C214.455 106.179 214.773 107.229 214.41 107.282C214.098 107.328 213.805 106.293 213.773 106.052C212.018 107.6 210.158 106.737 207.98 106.933C206.436 107.072 203.214 108.103 202.136 106.49C202.092 106.833 201.954 107.133 201.724 107.391C201.416 107.86 201.15 107.82 200.925 107.27C200.849 107.274 200.098 107.437 200.083 107.436C199.555 107.394 198.87 107.204 198.333 107.158C197.502 107.087 197.655 107.693 196.992 107.702C196.631 107.708 195.708 107.185 195.077 107.153C193.985 107.096 192.869 107.559 191.791 107.419C191.049 107.322 190.379 106.718 189.651 106.695C188.744 106.665 188.45 107.356 187.731 106.385C187.584 106.345 187.493 106.917 187.434 106.926C187.448 106.924 186.75 107.027 186.668 107.059C186.524 107.114 185.966 107.37 185.796 107.373C185.429 107.38 185.23 107.117 184.841 107.111C184.198 107.1 182.144 107.666 182.202 106.476C179.906 107.327 177.947 106.995 175.59 107.196C174.509 107.289 173.83 107.144 172.801 106.945C171.513 106.697 170.657 107.009 169.372 107.072C168.138 107.133 167.748 106.611 166.706 106.139C166.295 105.953 166.024 105.707 165.519 105.811C165.232 105.87 165.436 106.354 165.351 106.387C164.909 106.558 164.599 106.377 163.992 106.418C162.871 106.495 162.425 107.432 161.272 106.552C161.655 106.506 162.038 106.459 162.421 106.412C161.319 105.945 159.865 105.707 160.132 107.408C159.192 107.276 160.005 106.636 159.543 106.407C159.081 106.178 158.564 106.561 157.982 106.751C156.446 107.249 155.164 107.002 153.562 106.912C151.741 106.81 147.482 108.296 146.178 106.367C146.139 106.774 145.703 107.906 145.122 107.853C144.933 107.835 145.46 106.633 145.52 106.506C145.221 107.143 143.856 107.264 143.184 107.594C143.259 107.252 143.335 106.91 143.41 106.568C142.786 107.233 142.482 106.827 141.747 107.049C141.426 107.146 140.961 107.809 140.687 107.849C140.367 107.478 139.964 107.318 139.48 107.37C139.158 107.289 138.836 107.273 138.514 107.323C137.224 107.416 136.049 108.133 134.766 107.645C133.656 107.222 133.226 106.134 132.564 107.865C132.39 107.557 132.216 107.249 132.042 106.942C131.827 107.276 131.612 107.61 131.397 107.943C130.557 107.393 130.505 107.074 129.539 107.277C129.312 107.367 129.079 107.354 128.841 107.238C128.784 107.408 128.727 107.577 128.67 107.747C128.647 108.173 128.521 108.314 128.291 108.169C128.098 108.099 127.923 107.994 127.767 107.852C127.128 107.901 126.311 108.069 125.624 107.976C125.359 107.941 123.698 107.064 123.575 107.2ZM143.146 95.7437C143.222 95.8593 143.297 95.9749 143.372 96.0904C142.334 96.639 142.09 96.324 141.983 95.2228C142.49 95.2325 142.576 96.125 143.146 95.7437ZM143.79 95.0974C144.29 95.318 144.863 95.7514 145.334 95.1707C145.651 96.0925 143.296 97.3504 143.79 95.0974ZM147.019 95.5044C148.069 96.2141 145.551 95.6436 145.555 95.6448C146.007 95.2268 146.495 95.18 147.019 95.5044ZM156.048 91.5475C156.408 93.3642 157.401 93.3125 159.003 92.468C161.34 91.2361 161.735 89.2188 161.898 86.81C162.054 84.5004 162.337 83.6063 164.718 84.0886C166.38 84.4251 167.786 84.1423 169.461 84.0959C171.249 84.0467 171.879 84.3197 172.023 86.16C172.167 88.0028 172.495 89.4019 173.832 90.8043C175.191 92.2299 177.004 93.0813 178.77 93.879C179.678 94.2888 180.531 94.7299 181.536 94.8187C181.926 94.8532 183.952 94.5969 183.995 95.2382C184.026 95.7205 181.22 97.0806 180.922 97.2425C179.62 97.9507 178.322 98.5859 176.9 99.0149C173.629 100.002 170.161 100.06 166.773 100.001C161.31 99.9045 153.76 97.5934 150.493 92.7456C152.345 92.3463 154.196 91.9467 156.048 91.5475ZM155.558 75.8137C154.693 75.0881 154.134 73.9921 153.415 73.133C153.053 72.6996 152.788 72.5617 152.443 72.3447C152.081 72.1164 151.876 72.4396 151.573 71.9028C150.791 70.5154 153.205 68.5632 150.645 68.0293C149.779 67.8482 147.694 68.5347 147.441 67.2935C147.084 65.5382 150.433 65.4235 151.221 64.5326C152.788 62.7615 151.725 59.7589 152.679 57.7155C153.582 55.78 155.914 55.4361 157.755 54.8545C160.32 54.0447 162.915 53.575 165.519 52.9267C167.34 52.4738 170.365 50.6534 172.054 52.2618C169.448 52.8405 170.963 53.7488 172.7 54.2616C174.667 54.8427 176.752 55.0694 178.791 55.2314C180.889 55.3979 183.028 55.4296 185.101 55.0112C187.018 54.6242 189.16 52.9573 191.17 53.3842C190.055 55.3242 186.732 56.3839 184.713 56.8922C183.684 57.1511 183.025 57.0701 183.163 58.3532C183.297 59.5969 184.378 60.8439 184.622 62.1392C184.945 63.8538 184.663 65.4292 184.053 67.0416C183.452 68.6279 183.312 68.8351 183.837 70.351C184.654 72.7114 182.897 75.3201 181.274 77.0342C174.708 83.9649 162.142 81.3395 155.558 75.8137ZM172.242 34.3919C172.269 34.4627 172.246 34.4358 172.242 34.3919V34.3919ZM174.287 51.8825C174.015 52.086 172.447 52.5125 172.512 51.8996C172.6 51.0783 174.013 51.375 174.287 51.8825ZM177.861 35.2925C177.493 35.0182 176.463 35.1309 177.216 34.0911C177.461 34.5485 177.661 34.9205 177.861 35.2925ZM153.131 28.7196C153.6 27.5007 154.119 26.3669 154.33 25.0695C154.461 24.2702 154.201 23.3574 155.319 23.232C153.895 22.611 153.88 20.1598 153.796 18.8893C153.681 17.1393 153.128 14.7964 153.897 13.1678C154.686 11.4947 155.751 11.5224 156.072 13.5149C156.198 14.295 155.717 14.5474 155.626 15.0907C155.447 16.1655 155.803 15.9298 156.497 15.111C156.783 15.9433 156.893 17.1939 158.057 17.141C157.98 16.9159 157.533 16.4194 157.683 16.1398C157.911 15.7105 159.03 16.3665 159.172 16.4658C160.194 17.1804 160.415 17.8328 159.686 18.7342C160.695 18.8429 159.849 19.726 160.5 19.9564C161.493 20.3076 160.827 18.6435 160.719 18.3509C161.324 18.5869 161.527 18.8563 161.909 19.3341C162.134 19.6638 162.339 20.006 162.523 20.3601C162.729 21.0063 163.153 21.1683 163.795 20.846C165.081 21.2497 166.857 21.1866 168.01 21.8923C168.537 22.2146 168.727 22.9199 169.167 23.1877C169.662 23.4892 170.326 23.3525 170.858 23.5417C170.663 23.9837 170.821 24.223 171.329 24.2604C171.725 24.2967 172.108 24.3858 172.478 24.5274C172.755 24.3186 173.056 24.1538 173.381 24.0338C173.6 24.4192 173.909 24.5144 174.309 24.3203C175.495 24.5425 176.065 24.9914 176.819 25.6624C177.496 26.2647 176.945 26.3136 177.687 26.2603C177.984 26.2387 178.507 25.7332 179.188 25.8317C179.58 25.9082 179.959 26.0291 180.323 26.1943C180.717 26.5313 181.135 26.5736 181.577 26.3217C182.295 26.6729 182.366 27.2952 183.242 27.3802C184.211 27.4747 183.899 26.2668 184.564 27.9703C185.46 26.1642 185.788 29.0415 186.713 29.2739C187.671 29.5148 187.775 28.7379 188.595 29.5868C188.841 29.8412 188.827 30.2616 189.103 30.5314C189.555 30.9729 190.167 30.8846 190.56 31.4869C190.341 31.1508 190.611 32.6781 190.607 32.6277C190.668 33.3016 190.069 34.0565 191.296 33.9991C191.282 34.07 190.693 34.9291 190.578 34.8318C190.55 34.7337 190.526 34.6344 190.507 34.5339C190.376 34.5905 190.317 35.4089 190.341 35.5534C190.445 35.5696 190.488 35.4923 190.469 35.3214C190.267 35.9526 190.571 36.3534 190.184 36.9525C189.936 37.3355 189.258 37.6232 188.897 37.8596C188.027 38.4302 187.176 39.0024 186.328 39.6096C184.349 41.0258 182.133 42.7335 179.641 43.0289C180.893 41.7999 188.093 37.1487 184.482 35.8134C183.812 35.566 182.592 35.3316 181.892 35.2795C181.021 35.2148 180.12 35.7137 179.159 35.4024C177.999 35.0271 178.436 33.9369 177.728 33.5458C176.224 32.716 176.579 34.6674 176.105 35.1785C175.608 34.6564 175.714 34.4024 174.929 34.3552C174.132 34.3072 173.942 35.0442 173.012 34.5852C171.73 33.9523 172.408 32.692 170.59 32.6623C170.621 32.3855 170.884 31.6123 170.537 31.3966C170.07 32.0034 170.432 32.6818 169.998 33.2658C169.78 33.5588 169.309 33.7924 168.965 33.8872C168.158 34.1086 168.044 34.5327 168.175 33.3187C167.578 34.3951 165.746 33.9523 164.656 33.8441C162.885 33.6679 161.002 33.3325 159.304 32.7644C157.733 32.2386 156.894 31.3356 155.599 30.5139C155.109 30.203 154.875 30.3218 154.173 30.1289C153.48 29.9384 152.804 29.5693 153.131 28.7196ZM156.869 9.66011C157.136 9.49895 157.328 11.9037 157.004 12.353C156.411 11.4141 155.358 10.037 156.869 9.66011ZM157.723 8.70089C158.583 7.92236 157.985 9.93318 157.828 10.2706C157.509 10.0663 157.19 9.86196 156.872 9.65767C157.278 9.4082 157.38 9.0114 157.723 8.70089ZM190.17 5.46021C198.115 7.12796 205.988 10.2453 212.361 15.3755C218.166 20.0483 222.262 26.6782 224.559 33.7305C226.943 41.0507 226.142 49.1721 220.47 54.7744C217.482 57.7253 213.536 59.5058 209.775 61.2431C207.973 62.0754 206.118 62.7688 204.309 63.5819C203.01 64.1659 201.424 65.1003 199.941 64.9384C200.697 64.1423 201.795 64.1261 202.71 63.6393C203.816 63.0509 204.719 61.9215 205.673 61.1149C206.619 60.314 208.719 57.792 210.173 58.4025C209.971 57.0591 211.502 56.4352 212.191 55.5492C212.921 54.612 212.973 53.516 214.317 53.2092C212.874 52.0794 213.316 49.9486 213.629 48.4106C214.031 46.4438 214.217 44.6381 214.376 42.6366C214.661 39.028 214.891 34.4313 212.898 31.259C212.251 30.229 211.427 29.2824 210.85 28.2125C210.154 26.9232 210.308 25.7882 210.308 24.3748C209.036 25.2294 208.768 23.4868 208.231 22.6375C207.828 22.0001 207.298 21.644 207.168 20.8423C207.074 20.2587 207.707 20.1602 207.36 19.5486C206.934 19.8701 206.764 20.3682 206.549 20.8305C206.156 20.6734 206.619 20.1265 206.394 19.9486C206.388 19.9437 205.63 19.6145 205.667 19.6621C205.18 19.0439 205.023 18.018 204.784 17.2822C203.891 17.7347 204.058 17.6814 203.061 16.9253C202.886 16.7922 202.009 16.1809 201.926 15.9811C201.541 15.0467 202.216 15.6002 202.027 15.0203C201.485 13.3546 198.44 13.6695 198.199 11.1736C196.714 12.1166 196.147 10.7805 195.27 9.83022C194.37 8.85676 192.861 8.48235 192.942 6.93832C192.475 7.09825 192.007 7.25779 191.54 7.41691C191.783 5.99212 189.667 6.08287 188.9 5.3601C189.326 5.36539 189.749 5.39876 190.17 5.46021ZM191.38 93.7064C192.116 93.0475 191.893 93.9241 192.366 93.824C192.772 93.7382 192.852 93.4317 193.24 93.3377C194.841 92.9507 197.235 93.437 198.918 93.3536C200.868 93.2571 204.211 93.6621 205.14 95.9439C205.7 97.3182 204.845 96.8506 203.904 96.7485C203.174 96.6695 202.526 96.8173 201.804 96.8099C201.446 96.8649 201.091 96.8596 200.736 96.7933C200.563 96.6793 200.461 96.519 200.43 96.3122C199.425 96.16 198.358 96.7546 197.245 96.7843C195.76 96.8238 194.44 96.5389 193.312 95.5361C192.863 96.2048 192.558 96.5365 191.751 96.6113C191.73 96.6134 190.942 96.2959 190.82 96.2642C190.659 96.2223 190.25 96.5613 189.939 96.4644C190.491 95.5846 190.572 94.4288 191.38 93.7064ZM292.802 101.648C293.064 100.736 293.283 99.8117 293.522 98.8936C297.187 103.067 300.395 108.655 301.839 114.008C302.776 117.486 304.235 123.789 299.765 125.582C296.124 127.044 294.094 121.805 293.172 119.225C291.138 113.53 291.138 107.443 292.802 101.648ZM128.804 36.2472C128.851 36.2379 126.431 37.6456 127.229 36.5057C127.549 36.0474 128.764 35.7251 129.303 35.7251L128.804 36.2472ZM126.477 36.8438C126.197 37.0795 125.914 37.3123 125.628 37.5418C125.354 37.1088 125.08 36.6758 124.806 36.2428C125.346 36.0149 127.64 35.8439 126.477 36.8438ZM124.771 80.6123C124.265 80.2692 123.863 80.4515 123.711 81.0274C123.711 80.4544 124.009 79.1232 124.468 78.9681C124.764 78.8676 123.483 77.3517 123.843 76.9549C124.759 77.4794 124.21 77.982 124.479 78.6592C124.6 78.9649 124.964 79.2538 125.043 79.4886C125.178 79.8871 125.725 81.2573 124.771 80.6123ZM122.29 77.2011C121.772 77.3337 122.68 78.19 122.679 78.5685C122.678 78.8546 122.335 79.0743 122.193 79.4658C121.886 80.3144 122.414 80.8874 121.544 81.5349C121.544 79.6758 120.297 74.7499 122.693 73.844C121.524 72.923 122.485 71.86 123.401 72.9621C124.282 74.0219 123.721 76.8348 122.29 77.2011ZM121.041 69.8651C120.57 68.1941 119.152 67.6097 117.532 67.7086C117.593 66.8531 118.241 65.6196 118.71 67.1616C118.902 66.7058 119.036 66.1112 119.474 65.8093C120.214 68.1274 123.899 69.4081 121.604 71.9199C121.417 71.235 121.235 70.5488 121.041 69.8651ZM116.759 67.8331C108.225 68.4521 96.2438 70.2232 89.4144 63.6804C84.9616 59.4142 85.1994 52.7705 88.7979 48.0305C90.8514 45.3258 93.6547 43.4212 96.4701 41.607C97.5564 40.9066 98.4769 40.4443 99.6696 40.0418C99.8626 40.021 100.044 40.0642 100.214 40.1712C100.281 39.8831 100.443 39.6698 100.702 39.5306C101.162 39.284 101.819 39.1961 102.084 38.6841C101.801 39.6454 101.655 40.6351 101.551 41.6298C101.321 41.362 101.092 41.0942 100.862 40.8264C100.67 42.6378 98.7833 41.5415 97.6568 41.7677C98.3988 42.7949 98.9296 43.1681 98.9934 44.5257C98.4407 43.5051 97.2849 42.834 96.2104 42.5051C96.794 44.2315 97.2065 45.2562 96.6189 47.1495C95.9093 46.7441 95.8614 45.7706 95.0006 45.5375C94.7735 46.6664 94.7332 47.919 94.4422 49.0146C92.238 48.009 92.453 50.7173 93.3381 52.0575C93.8087 52.7705 94.0399 53.5958 94.4597 54.2803C95.4899 55.9591 94.7072 53.4485 95.8524 53.5677C95.5952 55.3384 95.5058 55.5146 96.8013 56.8112C98.0656 58.0757 98.7215 59.8301 100.074 61.0181C100.465 60.5175 99.8496 59.9937 99.7956 59.5147C101.054 59.7259 101.643 60.9879 102.853 59.87C103.381 60.8984 103.952 62.031 105.215 62.2422C104.38 60.6542 106.819 61.7311 107.445 61.9565C107.919 62.1274 108.769 62.2634 108.952 62.3293C109.983 62.7017 109.276 62.0334 109.902 63.2539C110.82 62.9768 111.167 62.2145 112.265 62.8584C113.158 63.3821 113.16 64.2791 113.364 65.198C113.577 64.5969 113.792 63.9962 114.028 63.4033C114.267 63.5042 115.273 64.6112 115.164 64.6165C117.517 64.5009 117.434 65.9627 116.759 67.8331ZM104.777 37.8661C105.249 37.5345 105.826 37.976 106.357 37.8572C107.092 37.6932 107.509 37.0636 108.33 36.996C108.102 37.7261 107.673 37.6578 107.31 38.2312C107.187 38.4265 107.251 38.8954 107.141 39.0077C106.221 39.9502 105.904 39.181 104.964 38.4676C105.046 39.328 105.212 39.5998 104.401 39.8306C103.668 40.0397 102.457 39.2694 102.087 38.6784C102.399 38.0542 104.211 38.2633 104.777 37.8661ZM110.632 36.5215C111.429 36.5976 110.469 38.9491 109.327 36.668C109.757 36.5744 110.193 36.5256 110.632 36.5215ZM114.73 36.0669C115.986 35.8106 120.178 34.6157 120.645 36.5724C120.729 36.5236 121.04 35.4191 121.185 35.5538C121.766 36.0938 121.831 36.8097 121.786 37.5597C121.085 36.0979 121.334 37.3819 120.859 37.2817C120.735 37.2553 120.545 37.4873 120.23 37.3916C119.818 37.2659 119.523 36.3889 119.263 36.0918C118.83 36.7104 118.293 37.5068 117.425 37.4531C116.811 37.4152 115.821 35.8338 116.617 37.565C116.15 37.4107 115.609 37.0616 115.089 37.1316C114.507 37.2101 114.204 37.7852 113.658 37.8779C112.448 38.0831 112.266 36.9183 111.48 36.2859C112.563 36.2228 113.66 36.2851 114.73 36.0669ZM122.333 36.0482C122.422 35.647 123.521 35.485 123.801 35.6124C124.485 35.9229 124.232 36.3327 124.106 37.0148C123.599 36.7747 123.092 36.535 122.585 36.2948C123.342 37.5141 121.97 37.6911 122.333 36.0482ZM335.203 107.468C335.114 104.546 335.029 101.573 334.288 98.7284C333.77 96.7375 332.496 93.1676 330.088 92.8221C326.456 92.3008 324.445 99.4805 323.427 101.945C323.224 99.0434 323.402 95.9549 322.306 93.201C321.429 90.994 319.212 88.9038 317.304 91.3822C315.605 93.588 315.279 96.8441 314.832 99.498C314.252 102.937 313.904 106.402 313.481 109.862C311.822 106.655 311.533 102.985 310.221 99.6522C308.984 96.5076 307.037 93.5042 305.162 90.7071C303.63 88.4224 301.767 86.2744 299.368 84.8777C297.279 83.6621 293.628 82.3472 291.637 84.3661C289.976 86.0506 290.236 88.3047 290.323 90.4303C290.361 91.3769 290.51 92.0261 289.677 92.503C289.269 92.7374 288.629 92.6161 288.18 92.7415C287.456 92.9438 286.9 93.2864 286.288 93.7418C281.993 96.9349 280.013 102.689 279.4 107.819C278.625 114.319 281.158 119.891 283.338 125.839C283.685 126.787 284.789 128.798 284.636 129.856C284.469 131.015 283.014 131.045 282.032 131.069C279.067 131.142 275.968 130.921 273.018 130.645C265.994 129.988 258.976 126.606 252.687 123.586C251.54 123.035 249.916 122.719 248.98 121.852C248.099 121.036 247.867 119.729 247.107 118.793C245.242 116.498 244.054 114.539 241.307 113.152C238.51 111.74 235.656 110.434 232.927 108.887C229.552 106.974 226.435 104.55 223.201 102.407C217.191 98.4264 211.222 94.0621 204.85 90.677C201.889 89.1036 198.581 88.8489 195.507 87.5608C192.513 86.3065 188.839 86.3049 185.715 87.0969C184.193 87.4831 183.158 88.3979 181.758 88.995C180.118 89.6949 178.78 88.9225 177.337 88.087C175.132 86.8108 172.946 84.7312 176.086 83.3544C177.151 82.8872 178.486 82.7102 179.417 81.9756C180.409 81.193 181.205 79.7491 182.011 78.7687C183.804 76.5894 184.875 74.0805 187.5 72.7253C190.402 71.2264 193.842 70.8186 196.936 69.8391C200.289 68.7781 203.571 67.5165 206.861 66.2777C212.789 64.0459 218.952 61.6362 223.212 56.7233C226.886 52.4848 228.487 47.0139 228.339 41.4572C228.036 30.0976 221.952 18.569 213.223 11.4666C202.52 2.75755 188.904 -0.146562 175.384 0.00564317C169.038 0.0772693 161.466 0.907888 156.172 4.7639C151.599 8.09451 150.838 13.9198 151.518 19.1782C151.794 21.3124 152.738 24.1286 151.233 26.0092C150.391 27.0612 148.879 27.3216 147.745 27.9777C146.319 28.8018 145.062 29.5917 143.448 30.0276C136.589 31.8801 129.366 31.235 122.353 31.1325C110.672 30.9615 98.6987 34.1249 89.9846 42.3578C82.9476 49.0056 80.8372 61.5414 89.4197 68.0224C96.3539 73.258 107.23 72.6821 115.407 71.7689C117.942 71.4852 119.685 71.0734 119.691 74.1761C119.698 77.5653 119.136 81.1076 120.001 84.4349C121.363 89.675 126.396 89.7999 130.847 88.6714C133.196 88.076 135.466 87.1807 137.696 86.2431C140.967 84.8679 143.965 82.8457 147.196 81.473C149.386 80.5427 151.026 83.5514 152.968 81.4657C153.327 81.0803 153.393 80.5056 153.934 80.3083C154.783 79.9994 156.206 81.0827 156.95 81.4254C158.065 81.9386 159.188 82.3158 159.633 83.5514C160.049 84.7072 159.867 86.545 159.468 87.6853C158.601 90.1638 156.267 89.6738 154.136 89.5082C150.42 89.2188 146.728 88.6055 143.013 88.3479C139.68 88.1167 136.558 89.113 133.683 90.7571C127.644 94.2102 122.704 99.7027 117.468 104.22C114.773 106.544 112.168 109.055 109.238 111.079C107.964 111.96 106.584 112.769 105.476 113.863C104.378 114.948 104.257 115.934 103.881 117.378C103.212 119.949 99.8878 121.206 97.81 122.562C94.8718 124.48 91.7568 125.833 88.4631 127.01C81.4874 129.502 74.4569 131.243 67.1643 132.529C63.5938 133.159 60.053 133.573 56.4475 133.913C53.3399 134.206 50.0351 135.163 46.9311 134.399C47.8252 132.948 49.4093 132.077 50.6431 130.956C52.2337 129.511 53.5865 127.798 54.7903 126.024C57.1335 122.569 58.7769 118.861 59.1545 114.67C59.4946 110.899 59.1045 106.387 56.8291 103.201C56.0432 102.1 54.4883 101.8 53.7849 100.809C53.0855 99.8231 53.3521 98.1265 52.9692 96.9772C51.9943 94.0544 49.1012 90.4324 46.5552 88.7349C43.793 86.8926 39.7523 86.2158 36.5614 87.1758C30.6501 88.9543 27.019 95.2728 24.3141 100.38C22.8365 97.2698 25.311 92.656 22.4244 90.1092C19.9897 87.9609 18.0574 92.1225 17.243 93.903C13.4205 102.261 12.5524 111.125 10.9509 120.068C10.2982 119.425 10.6327 117.773 10.694 117.006C10.8082 115.577 10.7977 114.175 10.8005 112.74C10.8082 109.115 11.482 105.474 11.1732 101.852C10.9948 99.7588 10.3275 95.3445 7.28648 96.04C4.70754 96.6301 3.09216 100.257 2.28182 102.475C1.11305 105.674 0.843211 108.84 0.915955 112.219C0.996419 115.953 0.285242 119.625 0.112934 123.354C-0.221929 130.595 0.10887 137.775 2.18632 144.764C5.58819 156.209 13.4099 165.719 23.8492 171.461C29.6008 174.625 35.9815 176.627 42.5418 177.058C46.0968 177.291 49.5288 176.868 53.0534 176.5C56.5316 176.137 60.0282 175.969 63.5004 175.544C71.2331 174.595 78.7679 172.146 85.7964 168.852C89.4961 167.117 92.9752 164.988 96.6144 163.139C98.0745 162.397 99.0612 161.469 100.307 160.437C101.543 159.415 101.885 159.335 103.29 159.335C102.878 158.232 104.081 157.892 104.616 157.194C104.586 157.533 104.556 157.871 104.526 158.209C104.934 157.324 105.313 157.332 105.665 158.235C106.012 157.224 106.27 156.185 106.689 155.2C108.293 156.012 108.158 157.942 110.303 156.533C112.07 155.373 113.694 154.005 115.495 152.868C119.597 150.278 123.134 146.909 127.247 144.349C127.247 146.842 127.423 149.357 127.09 151.838C126.773 154.197 125.893 156.402 125.192 158.66C123.901 162.826 123.811 167.279 122.381 171.404C121.788 173.112 120.246 174.54 119.804 176.203C119.353 177.899 120.395 179.258 118.649 180.372C117.419 181.157 115.88 181.489 114.518 181.964C112.439 182.689 110.466 183.712 108.442 184.579C98.9515 188.646 89.694 192.789 80.901 198.258C72.5563 203.448 64.0839 208.808 56.4182 214.972C49.7653 220.322 43.04 227.239 41.4205 235.965C39.849 244.43 44.036 253.515 52.4434 256.303C56.8149 257.753 61.757 257.573 66.3093 257.636C71.2079 257.703 76.3987 256.523 81.2148 255.668C86.3011 254.766 91.3001 253.354 96.401 252.548C101.295 251.775 105.784 250.047 110.598 248.982C115.726 247.847 120.985 247.232 126.14 246.212C128.461 245.752 130.735 245.075 133.063 244.649C135.611 244.184 138.187 244.009 140.71 243.393C145.604 242.196 150.29 240.268 155.206 239.155C157.416 238.654 159.592 237.984 161.803 237.516C163.839 237.086 165.424 235.941 167.464 236.881C169.112 237.64 170.427 238.942 171.987 239.849C174.01 241.025 176.142 242.079 178.251 243.091C182.489 245.125 186.884 246.531 191.315 248.058C195.969 249.662 200.54 251.491 205.362 252.551C210.305 253.637 215.348 253.939 220.325 254.798C230.519 256.557 240.627 257.346 250.974 257.41C256.204 257.443 261.434 256.823 266.652 256.896C271.271 256.961 275.287 258.003 279.511 255.546C286.26 251.622 294.089 245.71 293.923 237.123C293.772 229.345 289.108 221.914 284.733 215.78C279.42 208.331 271.845 203.085 264.42 197.946C256.508 192.47 247.62 188.686 239.304 183.906C235.05 181.461 231.128 178.831 226.51 177.093C224.305 176.264 222.155 175.303 219.976 174.41C218.223 173.692 215.691 173.295 214.191 172.103C213.255 171.36 213.165 170.234 212.918 169.128C212.37 166.681 211.51 164.361 210.676 162.001C209.066 157.445 207.996 152.804 207.304 148.025C206.644 143.47 205.18 138.732 205.938 134.103C210.926 138.929 216.051 143.568 221.155 148.266C223.067 150.026 224.944 151.824 226.867 153.574C228.31 154.887 230.115 156.839 232.127 157.229C234.697 157.727 233.758 154.884 235.522 154.443C236.6 154.174 239.852 156.914 240.705 157.456C246.108 160.887 252.092 163.061 258.035 165.397C264.266 167.846 270.676 170.021 277.381 170.637C283.576 171.207 289.909 170.476 295.887 168.788C307.791 165.427 316.551 157.451 322.979 147.112C330.304 135.331 335.635 121.531 335.203 107.468Z" fill="#414141"/>
<path fill-rule="evenodd" clip-rule="evenodd" d="M153.269 81.7854C153.267 81.7889 153.248 81.8278 153.248 81.8278C153.271 81.8122 153.278 81.7982 153.269 81.7854Z" fill="#414141"/>
<path fill-rule="evenodd" clip-rule="evenodd" d="M153.843 81.9374C153.799 81.562 153.702 81.1947 153.554 80.835C153.16 81.4599 152.808 81.7275 153.326 82.3893C153.498 82.2387 153.67 82.088 153.843 81.9374Z" fill="#414141"/>
<path fill-rule="evenodd" clip-rule="evenodd" d="M181.293 171.249C181.734 170.78 180.963 170.603 180.67 170.597C180.699 171.1 180.45 172.306 181.138 172.54C180.973 172.085 181.025 171.654 181.293 171.249Z" fill="#414141"/>
<path fill-rule="evenodd" clip-rule="evenodd" d="M169.665 73.08C168.908 74.5432 170.581 74.9971 171.55 74.2903C172.279 73.7588 172.71 72.4039 172.83 71.5347C173.217 68.7218 171.249 66.0446 170.268 63.5488C170.014 62.9037 169.667 60.6913 168.851 60.6304C167.913 60.5606 167.843 62.5984 167.831 63.1241C167.795 64.7096 168.215 66.3243 168.707 67.8209C169.237 69.4344 170.55 71.371 169.665 73.08Z" fill="#414141"/>
<path fill-rule="evenodd" clip-rule="evenodd" d="M173.268 67.2112C176.18 69.8047 178.509 65.4852 178.306 62.9301C178.255 62.297 177.828 59.9631 176.628 60.8125C176.024 61.2392 176.539 62.626 176.251 63.2347C174.858 66.1866 173.517 61.6081 172.58 61.2484C171.438 60.8105 171.324 62.3102 171.325 63.1117C171.328 64.7028 172.085 66.1574 173.268 67.2112Z" fill="#414141"/>
<path fill-rule="evenodd" clip-rule="evenodd" d="M162.698 67.6142C163.384 66.5339 164.227 65.085 164.32 63.7908C164.465 61.7791 163.293 61.947 162.328 63.3506C161.647 64.3421 161.136 66.0238 159.632 65.6058C157.775 65.0904 158.342 62.5929 157.303 61.406C154.678 64.9328 159.645 72.4213 162.698 67.6142Z" fill="#414141"/>
<path fill-rule="evenodd" clip-rule="evenodd" d="M166.632 78.4074C167.718 78.6421 170.549 78.5555 169.568 76.8927C168.331 74.7979 164.218 77.885 166.632 78.4074Z" fill="#414141"/>
<path fill-rule="evenodd" clip-rule="evenodd" d="M204.67 15.9423C204.869 15.3503 204.596 15.2428 204.122 14.7766C203.673 15.1909 204.248 15.6268 204.67 15.9423Z" fill="#414141"/>
<path fill-rule="evenodd" clip-rule="evenodd" d="M224.922 123.17C225.639 123.284 225.869 122.905 225.614 122.033C224.483 121.96 224.253 122.339 224.922 123.17Z" fill="#414141"/>
<path fill-rule="evenodd" clip-rule="evenodd" d="M185.807 31.699C186.597 32.0603 186.294 32.8016 186.281 33.4282C186.688 32.9858 187.51 32.177 187.175 31.5416C186.66 30.5618 185.312 31.4729 185.807 31.699Z" fill="#414141"/>
<path fill-rule="evenodd" clip-rule="evenodd" d="M158.894 19.3675C158.773 19.1325 158.653 18.8974 158.532 18.6624C158.042 19.0562 157.284 20.0977 158.064 20.6052C158.384 20.2172 158.66 19.8046 158.894 19.3675Z" fill="#414141"/>
<path fill-rule="evenodd" clip-rule="evenodd" d="M168.374 26.2799C169.357 27.051 168.885 24.6843 168.856 24.491C168.709 24.7686 167.877 25.8904 168.374 26.2799Z" fill="#414141"/>
<path fill-rule="evenodd" clip-rule="evenodd" d="M167.829 25.078C167.754 24.8825 167.678 24.6869 167.603 24.491C167.205 24.86 166.717 25.6136 167.375 26.0453C167.555 25.7429 167.707 25.4206 167.829 25.078Z" fill="#414141"/>
<path fill-rule="evenodd" clip-rule="evenodd" d="M174.072 33.2054C174.153 33.2796 174.233 33.3537 174.313 33.4282C174.637 32.774 174.269 32.2825 173.656 32.2625C173.7 32.6298 173.839 32.9441 174.072 33.2054Z" fill="#414141"/>
<path fill-rule="evenodd" clip-rule="evenodd" d="M147.73 106.805C148.12 106.539 148.474 106.237 148.793 105.897C147.639 105.191 148.33 106.72 146.941 105.781C146.642 106.195 147.131 107.121 147.73 106.805Z" fill="#414141"/>
<path fill-rule="evenodd" clip-rule="evenodd" d="M196.229 170.985C196.668 170.312 196.747 170.331 196.147 169.82C195.648 170.652 195.699 170.438 196.229 170.985Z" fill="#414141"/>
<path fill-rule="evenodd" clip-rule="evenodd" d="M104.505 63.7671C104.744 64.0164 104.982 64.2656 105.221 64.5145C105.333 64.1885 105.941 63.267 105.528 62.9602C105.187 63.2292 104.846 63.4981 104.505 63.7671Z" fill="#414141"/>
<path fill-rule="evenodd" clip-rule="evenodd" d="M113.002 66.2329C112.621 66.1692 111.709 65.8908 111.498 66.2455C112.056 66.703 113.315 66.2853 113.002 66.2329Z" fill="#414141"/>
</svg>
