<svg width="24" height="24" viewBox="0 0 24 24" fill="none" xmlns="http://www.w3.org/2000/svg">
<path d="M6.23433 20.6248C5.94653 20.6243 5.66382 20.5489 5.41402 20.4059C4.85152 20.0872 4.50183 19.4684 4.50183 18.7967V5.20296C4.50183 4.52937 4.85152 3.91249 5.41402 3.59374C5.66977 3.44676 5.96031 3.37118 6.25526 3.37489C6.55022 3.3786 6.83876 3.46147 7.09074 3.61484L18.7087 10.5692C18.9508 10.721 19.1504 10.9319 19.2888 11.1819C19.4272 11.432 19.4997 11.7131 19.4997 11.9989C19.4997 12.2847 19.4272 12.5658 19.2888 12.8159C19.1504 13.0659 18.9508 13.2768 18.7087 13.4286L7.08886 20.3848C6.831 20.5407 6.53565 20.6237 6.23433 20.6248Z" fill="#828282"/>
</svg>
