<svg width="31" height="31" viewBox="0 0 31 31" fill="none" xmlns="http://www.w3.org/2000/svg">
<path d="M15.3125 0C12.284 0 9.32346 0.898063 6.80534 2.58062C4.28721 4.26318 2.32457 6.65467 1.1656 9.45266C0.00663465 12.2507 -0.296604 15.3295 0.294232 18.2998C0.885068 21.2702 2.34344 23.9986 4.48493 26.1401C6.62643 28.2816 9.35485 29.7399 12.3252 30.3308C15.2955 30.9216 18.3744 30.6184 21.1723 29.4594C23.9703 28.3004 26.3618 26.3378 28.0444 23.8197C29.7269 21.3015 30.625 18.341 30.625 15.3125C30.6204 11.2528 29.0056 7.36069 26.135 4.49004C23.2643 1.6194 19.3722 0.00463173 15.3125 0V0ZM15.3125 28.4375C11.8315 28.4375 8.49315 27.0547 6.03173 24.5933C3.57032 22.1319 2.18751 18.7935 2.18751 15.3125C2.18751 11.8315 3.57032 8.49314 6.03173 6.03172C8.49315 3.57031 11.8315 2.1875 15.3125 2.1875V15.3125L24.5886 24.5886C23.3721 25.8094 21.9264 26.7779 20.3345 27.4384C18.7427 28.099 17.036 28.4385 15.3125 28.4375Z" fill="#036E90"/>
</svg>
